<?xml version="1.0" encoding="UTF-8" standalone="no"?>
<svg
   xmlns:dc="http://purl.org/dc/elements/1.1/"
   xmlns:cc="http://creativecommons.org/ns#"
   xmlns:rdf="http://www.w3.org/1999/02/22-rdf-syntax-ns#"
   xmlns:svg="http://www.w3.org/2000/svg"
   xmlns="http://www.w3.org/2000/svg"
   viewBox="0 0 1536 768"
   height="768"
   width="1536"
   xml:space="preserve"
   id="svg2"
   version="1.1"><metadata
     id="metadata8"><rdf:RDF><cc:Work
         rdf:about=""><dc:format>image/svg+xml</dc:format><dc:type
           rdf:resource="http://purl.org/dc/dcmitype/StillImage" /></cc:Work></rdf:RDF></metadata><defs
     id="defs6"><clipPath
       id="clipPath22"
       clipPathUnits="userSpaceOnUse"><path
         id="path20"
         d="M 56.88,56.857253 H 1139.04 V 546.96 H 56.88 Z" /></clipPath><clipPath
       id="clipPath40"
       clipPathUnits="userSpaceOnUse"><path
         id="path38"
         d="M 56.88,56.857253 H 1139.04 V 546.96 H 56.88 Z" /></clipPath><clipPath
       id="clipPath58"
       clipPathUnits="userSpaceOnUse"><path
         id="path56"
         d="M 56.88,56.857253 H 1139.04 V 546.96 H 56.88 Z" /></clipPath><clipPath
       id="clipPath76"
       clipPathUnits="userSpaceOnUse"><path
         id="path74"
         d="M 56.88,56.857253 H 1139.04 V 546.96 H 56.88 Z" /></clipPath><clipPath
       id="clipPath94"
       clipPathUnits="userSpaceOnUse"><path
         id="path92"
         d="M 56.88,56.857253 H 1139.04 V 546.96 H 56.88 Z" /></clipPath><clipPath
       id="clipPath112"
       clipPathUnits="userSpaceOnUse"><path
         id="path110"
         d="M 56.88,56.857253 H 1139.04 V 546.96 H 56.88 Z" /></clipPath><clipPath
       id="clipPath130"
       clipPathUnits="userSpaceOnUse"><path
         id="path128"
         d="M 56.88,56.857253 H 1139.04 V 546.96 H 56.88 Z" /></clipPath><clipPath
       id="clipPath148"
       clipPathUnits="userSpaceOnUse"><path
         id="path146"
         d="M 56.88,56.857253 H 1139.04 V 546.96 H 56.88 Z" /></clipPath><clipPath
       id="clipPath166"
       clipPathUnits="userSpaceOnUse"><path
         id="path164"
         d="M 56.88,56.857253 H 1139.04 V 546.96 H 56.88 Z" /></clipPath><clipPath
       id="clipPath184"
       clipPathUnits="userSpaceOnUse"><path
         id="path182"
         d="M 56.88,56.857253 H 1139.04 V 546.96 H 56.88 Z" /></clipPath><clipPath
       id="clipPath208"
       clipPathUnits="userSpaceOnUse"><path
         id="path206"
         d="M 56.88,56.857253 H 1139.04 V 546.96 H 56.88 Z" /></clipPath><clipPath
       id="clipPath226"
       clipPathUnits="userSpaceOnUse"><path
         id="path224"
         d="M 56.88,56.857253 H 1139.04 V 546.96 H 56.88 Z" /></clipPath><clipPath
       id="clipPath244"
       clipPathUnits="userSpaceOnUse"><path
         id="path242"
         d="M 56.88,56.857253 H 1139.04 V 546.96 H 56.88 Z" /></clipPath><clipPath
       id="clipPath262"
       clipPathUnits="userSpaceOnUse"><path
         id="path260"
         d="M 56.88,56.857253 H 1139.04 V 546.96 H 56.88 Z" /></clipPath><clipPath
       id="clipPath280"
       clipPathUnits="userSpaceOnUse"><path
         id="path278"
         d="M 56.88,56.857253 H 1139.04 V 546.96 H 56.88 Z" /></clipPath><clipPath
       id="clipPath298"
       clipPathUnits="userSpaceOnUse"><path
         id="path296"
         d="M 56.88,56.857253 H 1139.04 V 546.96 H 56.88 Z" /></clipPath><clipPath
       id="clipPath322"
       clipPathUnits="userSpaceOnUse"><path
         id="path320"
         d="M 56.88,56.857253 H 1139.04 V 546.96 H 56.88 Z" /></clipPath><clipPath
       id="clipPath332"
       clipPathUnits="userSpaceOnUse"><path
         id="path330"
         d="M 56.88,56.857253 H 1139.04 V 546.96 H 56.88 Z" /></clipPath><clipPath
       id="clipPath342"
       clipPathUnits="userSpaceOnUse"><path
         id="path340"
         d="M 56.88,56.857253 H 1139.04 V 546.96 H 56.88 Z" /></clipPath><clipPath
       id="clipPath352"
       clipPathUnits="userSpaceOnUse"><path
         id="path350"
         d="M 56.88,56.857253 H 1139.04 V 546.96 H 56.88 Z" /></clipPath><clipPath
       id="clipPath362"
       clipPathUnits="userSpaceOnUse"><path
         id="path360"
         d="M 56.88,56.857253 H 1139.04 V 546.96 H 56.88 Z" /></clipPath><clipPath
       id="clipPath372"
       clipPathUnits="userSpaceOnUse"><path
         id="path370"
         d="M 56.88,56.857253 H 1139.04 V 546.96 H 56.88 Z" /></clipPath><clipPath
       id="clipPath382"
       clipPathUnits="userSpaceOnUse"><path
         id="path380"
         d="M 56.88,56.857253 H 1139.04 V 546.96 H 56.88 Z" /></clipPath><clipPath
       id="clipPath392"
       clipPathUnits="userSpaceOnUse"><path
         id="path390"
         d="M 56.88,56.857253 H 1139.04 V 546.96 H 56.88 Z" /></clipPath><clipPath
       id="clipPath402"
       clipPathUnits="userSpaceOnUse"><path
         id="path400"
         d="M 56.88,56.857253 H 1139.04 V 546.96 H 56.88 Z" /></clipPath><clipPath
       id="clipPath412"
       clipPathUnits="userSpaceOnUse"><path
         id="path410"
         d="M 56.88,56.857253 H 1139.04 V 546.96 H 56.88 Z" /></clipPath><clipPath
       id="clipPath422"
       clipPathUnits="userSpaceOnUse"><path
         id="path420"
         d="M 56.88,56.857253 H 1139.04 V 546.96 H 56.88 Z" /></clipPath><clipPath
       id="clipPath432"
       clipPathUnits="userSpaceOnUse"><path
         id="path430"
         d="M 56.88,56.857253 H 1139.04 V 546.96 H 56.88 Z" /></clipPath><clipPath
       id="clipPath442"
       clipPathUnits="userSpaceOnUse"><path
         id="path440"
         d="M 56.88,56.857253 H 1139.04 V 546.96 H 56.88 Z" /></clipPath><clipPath
       id="clipPath452"
       clipPathUnits="userSpaceOnUse"><path
         id="path450"
         d="M 56.88,56.857253 H 1139.04 V 546.96 H 56.88 Z" /></clipPath><clipPath
       id="clipPath462"
       clipPathUnits="userSpaceOnUse"><path
         id="path460"
         d="M 56.88,56.857253 H 1139.04 V 546.96 H 56.88 Z" /></clipPath><clipPath
       id="clipPath472"
       clipPathUnits="userSpaceOnUse"><path
         id="path470"
         d="M 56.88,56.857253 H 1139.04 V 546.96 H 56.88 Z" /></clipPath><clipPath
       id="clipPath482"
       clipPathUnits="userSpaceOnUse"><path
         id="path480"
         d="M 56.88,56.857253 H 1139.04 V 546.96 H 56.88 Z" /></clipPath><clipPath
       id="clipPath492"
       clipPathUnits="userSpaceOnUse"><path
         id="path490"
         d="M 56.88,56.857253 H 1139.04 V 546.96 H 56.88 Z" /></clipPath><clipPath
       id="clipPath502"
       clipPathUnits="userSpaceOnUse"><path
         id="path500"
         d="M 56.88,56.857253 H 1139.04 V 546.96 H 56.88 Z" /></clipPath><clipPath
       id="clipPath512"
       clipPathUnits="userSpaceOnUse"><path
         id="path510"
         d="M 56.88,56.857253 H 1139.04 V 546.96 H 56.88 Z" /></clipPath><clipPath
       id="clipPath522"
       clipPathUnits="userSpaceOnUse"><path
         id="path520"
         d="M 56.88,56.857253 H 1139.04 V 546.96 H 56.88 Z" /></clipPath><clipPath
       id="clipPath532"
       clipPathUnits="userSpaceOnUse"><path
         id="path530"
         d="M 56.88,56.857253 H 1139.04 V 546.96 H 56.88 Z" /></clipPath><clipPath
       id="clipPath542"
       clipPathUnits="userSpaceOnUse"><path
         id="path540"
         d="M 56.88,56.857253 H 1139.04 V 546.96 H 56.88 Z" /></clipPath><clipPath
       id="clipPath552"
       clipPathUnits="userSpaceOnUse"><path
         id="path550"
         d="M 56.88,56.857253 H 1139.04 V 546.96 H 56.88 Z" /></clipPath><clipPath
       id="clipPath562"
       clipPathUnits="userSpaceOnUse"><path
         id="path560"
         d="M 56.88,56.857253 H 1139.04 V 546.96 H 56.88 Z" /></clipPath><clipPath
       id="clipPath572"
       clipPathUnits="userSpaceOnUse"><path
         id="path570"
         d="M 56.88,56.857253 H 1139.04 V 546.96 H 56.88 Z" /></clipPath><clipPath
       id="clipPath582"
       clipPathUnits="userSpaceOnUse"><path
         id="path580"
         d="M 56.88,56.857253 H 1139.04 V 546.96 H 56.88 Z" /></clipPath><clipPath
       id="clipPath592"
       clipPathUnits="userSpaceOnUse"><path
         id="path590"
         d="M 56.88,56.857253 H 1139.04 V 546.96 H 56.88 Z" /></clipPath><clipPath
       id="clipPath602"
       clipPathUnits="userSpaceOnUse"><path
         id="path600"
         d="M 56.88,56.857253 H 1139.04 V 546.96 H 56.88 Z" /></clipPath><clipPath
       id="clipPath612"
       clipPathUnits="userSpaceOnUse"><path
         id="path610"
         d="M 56.88,56.857253 H 1139.04 V 546.96 H 56.88 Z" /></clipPath><clipPath
       id="clipPath636"
       clipPathUnits="userSpaceOnUse"><path
         id="path634"
         d="M -1070,-416 H 1976 V 1175 H -1070 Z" /></clipPath><clipPath
       id="clipPath650"
       clipPathUnits="userSpaceOnUse"><path
         id="path648"
         d="M -1070,-416 H 1976 V 1175 H -1070 Z" /></clipPath><clipPath
       id="clipPath664"
       clipPathUnits="userSpaceOnUse"><path
         id="path662"
         d="M -1070,-416 H 1976 V 1175 H -1070 Z" /></clipPath><clipPath
       id="clipPath678"
       clipPathUnits="userSpaceOnUse"><path
         id="path676"
         d="M -1070,-416 H 1976 V 1175 H -1070 Z" /></clipPath><clipPath
       id="clipPath704"
       clipPathUnits="userSpaceOnUse"><path
         id="path702"
         d="M -1070,-416 H 1976 V 1175 H -1070 Z" /></clipPath></defs><g
     transform="matrix(1.3333333,0,0,-1.3333333,0,768)"
     id="g10"><path
       id="path12"
       style="fill:#ffffff;fill-opacity:1;fill-rule:nonzero;stroke:none"
       d="M 0,0 H 1152 V 576 H 0 Z" /><path
       id="path14"
       style="fill:#ffffff;fill-opacity:1;fill-rule:nonzero;stroke:none"
       d="M 56.88,56.857253 H 1139.04 V 546.96 H 56.88 Z" /><g
       id="g16"><g
         clip-path="url(#clipPath22)"
         id="g18"><path
           id="path24"
           style="fill:none;stroke:#cccccc;stroke-width:1;stroke-linecap:round;stroke-linejoin:round;stroke-miterlimit:10;stroke-dasharray:none;stroke-opacity:1"
           d="M 143.90685,56.857253 V 546.96" /></g></g><g
       id="g26"><g
         transform="rotate(45,27.735246,191.56577)"
         id="g28"><text
           id="text32"
           style="font-variant:normal;font-weight:normal;font-size:11px;font-family:'DejaVu Sans';-inkscape-font-specification:DejaVuSans;writing-mode:lr-tb;fill:#262626;fill-opacity:1;fill-rule:nonzero;stroke:none"
           transform="scale(1,-1)"><tspan
             id="tspan30"
             y="0"
             x="0">3</tspan></text>
</g></g><g
       id="g34"><g
         clip-path="url(#clipPath40)"
         id="g36"><path
           id="path42"
           style="fill:none;stroke:#cccccc;stroke-width:1;stroke-linecap:round;stroke-linejoin:round;stroke-miterlimit:10;stroke-dasharray:none;stroke-opacity:1"
           d="M 244.80755,56.857253 V 546.96" /></g></g><g
       id="g44"><g
         transform="rotate(45,78.185595,313.36369)"
         id="g46"><text
           id="text50"
           style="font-variant:normal;font-weight:normal;font-size:11px;font-family:'DejaVu Sans';-inkscape-font-specification:DejaVuSans;writing-mode:lr-tb;fill:#262626;fill-opacity:1;fill-rule:nonzero;stroke:none"
           transform="scale(1,-1)"><tspan
             id="tspan48"
             y="0"
             x="0">8</tspan></text>
</g></g><g
       id="g52"><g
         clip-path="url(#clipPath58)"
         id="g54"><path
           id="path60"
           style="fill:none;stroke:#cccccc;stroke-width:1;stroke-linecap:round;stroke-linejoin:round;stroke-miterlimit:10;stroke-dasharray:none;stroke-opacity:1"
           d="M 345.70825,56.857253 V 546.96" /></g></g><g
       id="g62"><g
         transform="rotate(45,133.37338,429.6993)"
         id="g64"><text
           id="text68"
           style="font-variant:normal;font-weight:normal;font-size:11px;font-family:'DejaVu Sans';-inkscape-font-specification:DejaVuSans;writing-mode:lr-tb;fill:#262626;fill-opacity:1;fill-rule:nonzero;stroke:none"
           transform="scale(1,-1)"><tspan
             id="tspan66"
             y="0"
             x="0 6.9959998">10</tspan></text>
</g></g><g
       id="g70"><g
         clip-path="url(#clipPath76)"
         id="g72"><path
           id="path78"
           style="fill:none;stroke:#cccccc;stroke-width:1;stroke-linecap:round;stroke-linejoin:round;stroke-miterlimit:10;stroke-dasharray:none;stroke-opacity:1"
           d="M 446.60895,56.857253 V 546.96" /></g></g><g
       id="g80"><g
         transform="rotate(45,179.08629,556.95953)"
         id="g82"><text
           id="text86"
           style="font-variant:normal;font-weight:normal;font-size:11px;font-family:'DejaVu Sans';-inkscape-font-specification:DejaVuSans;writing-mode:lr-tb;fill:#262626;fill-opacity:1;fill-rule:nonzero;stroke:none"
           transform="scale(1,-1)"><tspan
             id="tspan84"
             y="0"
             x="0">9</tspan></text>
</g></g><g
       id="g88"><g
         clip-path="url(#clipPath94)"
         id="g90"><path
           id="path96"
           style="fill:none;stroke:#cccccc;stroke-width:1;stroke-linecap:round;stroke-linejoin:round;stroke-miterlimit:10;stroke-dasharray:none;stroke-opacity:1"
           d="M 547.50965,56.857253 V 546.96" /></g></g><g
       id="g98"><g
         transform="rotate(45,229.53664,678.75744)"
         id="g100"><text
           id="text104"
           style="font-variant:normal;font-weight:normal;font-size:11px;font-family:'DejaVu Sans';-inkscape-font-specification:DejaVuSans;writing-mode:lr-tb;fill:#262626;fill-opacity:1;fill-rule:nonzero;stroke:none"
           transform="scale(1,-1)"><tspan
             id="tspan102"
             y="0"
             x="0">5</tspan></text>
</g></g><g
       id="g106"><g
         clip-path="url(#clipPath112)"
         id="g108"><path
           id="path114"
           style="fill:none;stroke:#cccccc;stroke-width:1;stroke-linecap:round;stroke-linejoin:round;stroke-miterlimit:10;stroke-dasharray:none;stroke-opacity:1"
           d="M 648.41035,56.857253 V 546.96" /></g></g><g
       id="g116"><g
         transform="rotate(45,279.98699,800.55536)"
         id="g118"><text
           id="text122"
           style="font-variant:normal;font-weight:normal;font-size:11px;font-family:'DejaVu Sans';-inkscape-font-specification:DejaVuSans;writing-mode:lr-tb;fill:#262626;fill-opacity:1;fill-rule:nonzero;stroke:none"
           transform="scale(1,-1)"><tspan
             id="tspan120"
             y="0"
             x="0">6</tspan></text>
</g></g><g
       id="g124"><g
         clip-path="url(#clipPath130)"
         id="g126"><path
           id="path132"
           style="fill:none;stroke:#cccccc;stroke-width:1;stroke-linecap:round;stroke-linejoin:round;stroke-miterlimit:10;stroke-dasharray:none;stroke-opacity:1"
           d="M 749.31105,56.857253 V 546.96" /></g></g><g
       id="g134"><g
         transform="rotate(45,330.43734,922.35328)"
         id="g136"><text
           id="text140"
           style="font-variant:normal;font-weight:normal;font-size:11px;font-family:'DejaVu Sans';-inkscape-font-specification:DejaVuSans;writing-mode:lr-tb;fill:#262626;fill-opacity:1;fill-rule:nonzero;stroke:none"
           transform="scale(1,-1)"><tspan
             id="tspan138"
             y="0"
             x="0">4</tspan></text>
</g></g><g
       id="g142"><g
         clip-path="url(#clipPath148)"
         id="g144"><path
           id="path150"
           style="fill:none;stroke:#cccccc;stroke-width:1;stroke-linecap:round;stroke-linejoin:round;stroke-miterlimit:10;stroke-dasharray:none;stroke-opacity:1"
           d="M 850.21175,56.857253 V 546.96" /></g></g><g
       id="g152"><g
         transform="rotate(45,380.88769,1044.1512)"
         id="g154"><text
           id="text158"
           style="font-variant:normal;font-weight:normal;font-size:11px;font-family:'DejaVu Sans';-inkscape-font-specification:DejaVuSans;writing-mode:lr-tb;fill:#262626;fill-opacity:1;fill-rule:nonzero;stroke:none"
           transform="scale(1,-1)"><tspan
             id="tspan156"
             y="0"
             x="0">2</tspan></text>
</g></g><g
       id="g160"><g
         clip-path="url(#clipPath166)"
         id="g162"><path
           id="path168"
           style="fill:none;stroke:#cccccc;stroke-width:1;stroke-linecap:round;stroke-linejoin:round;stroke-miterlimit:10;stroke-dasharray:none;stroke-opacity:1"
           d="M 951.11245,56.857253 V 546.96" /></g></g><g
       id="g170"><g
         transform="rotate(45,431.33804,1165.9491)"
         id="g172"><text
           id="text176"
           style="font-variant:normal;font-weight:normal;font-size:11px;font-family:'DejaVu Sans';-inkscape-font-specification:DejaVuSans;writing-mode:lr-tb;fill:#262626;fill-opacity:1;fill-rule:nonzero;stroke:none"
           transform="scale(1,-1)"><tspan
             id="tspan174"
             y="0"
             x="0">1</tspan></text>
</g></g><g
       id="g178"><g
         clip-path="url(#clipPath184)"
         id="g180"><path
           id="path186"
           style="fill:none;stroke:#cccccc;stroke-width:1;stroke-linecap:round;stroke-linejoin:round;stroke-miterlimit:10;stroke-dasharray:none;stroke-opacity:1"
           d="M 1052.0131,56.857253 V 546.96" /></g></g><g
       id="g188"><g
         transform="rotate(45,481.78839,1287.747)"
         id="g190"><text
           id="text194"
           style="font-variant:normal;font-weight:normal;font-size:11px;font-family:'DejaVu Sans';-inkscape-font-specification:DejaVuSans;writing-mode:lr-tb;fill:#262626;fill-opacity:1;fill-rule:nonzero;stroke:none"
           transform="scale(1,-1)"><tspan
             id="tspan192"
             y="0"
             x="0">7</tspan></text>
</g><g
         transform="translate(450.81156,16.8087)"
         id="g196"><text
           id="text200"
           style="font-variant:normal;font-weight:normal;font-size:12px;font-family:'DejaVu Sans';-inkscape-font-specification:DejaVuSans;writing-mode:lr-tb;fill:#262626;fill-opacity:1;fill-rule:nonzero;stroke:none"
           transform="scale(1,-1)"><tspan
             id="tspan198"
             y="0"
             x="0 8.3760004 15.72 27.408001 39.096001 46.703999 54.312 57.647999 62.352001 69.456001 73.272003 76.811996 86.052002 89.867996 94.547997 102.168 109.512 114.444 119.148 126.528 134.14799 137.964 145.584 152.688 156.504 166.86 174.20399 180.45599 185.16 188.976 197.952 205.332 212.952 220.308 225.01199 228.34801 235.452 242.832 246.64799 256.09201 263.19601 270.57599 275.508 282.86401 286.20001 289.53601">Community ID (Sorted by Most Negative Overall)</tspan></text>
</g></g><g
       id="g202"><g
         clip-path="url(#clipPath208)"
         id="g204"><path
           id="path210"
           style="fill:none;stroke:#cccccc;stroke-width:1;stroke-linecap:round;stroke-linejoin:round;stroke-miterlimit:10;stroke-dasharray:none;stroke-opacity:0.3"
           d="M 56.88,97.699149 H 1139.04" /></g></g><g
       id="g212"><g
         transform="translate(29.88,93.519461)"
         id="g214"><text
           id="text218"
           style="font-variant:normal;font-weight:normal;font-size:11px;font-family:'DejaVu Sans';-inkscape-font-specification:DejaVuSans;writing-mode:lr-tb;fill:#262626;fill-opacity:1;fill-rule:nonzero;stroke:none"
           transform="scale(1,-1)"><tspan
             id="tspan216"
             y="0"
             x="0 6.9959998 10.494">0.0</tspan></text>
</g></g><g
       id="g220"><g
         clip-path="url(#clipPath226)"
         id="g222"><path
           id="path228"
           style="fill:none;stroke:#cccccc;stroke-width:1;stroke-linecap:round;stroke-linejoin:round;stroke-miterlimit:10;stroke-dasharray:none;stroke-opacity:0.3"
           d="M 56.88,179.38294 H 1139.04" /></g></g><g
       id="g230"><g
         transform="translate(29.88,175.20325)"
         id="g232"><text
           id="text236"
           style="font-variant:normal;font-weight:normal;font-size:11px;font-family:'DejaVu Sans';-inkscape-font-specification:DejaVuSans;writing-mode:lr-tb;fill:#262626;fill-opacity:1;fill-rule:nonzero;stroke:none"
           transform="scale(1,-1)"><tspan
             id="tspan234"
             y="0"
             x="0 6.9959998 10.494">0.2</tspan></text>
</g></g><g
       id="g238"><g
         clip-path="url(#clipPath244)"
         id="g240"><path
           id="path246"
           style="fill:none;stroke:#cccccc;stroke-width:1;stroke-linecap:round;stroke-linejoin:round;stroke-miterlimit:10;stroke-dasharray:none;stroke-opacity:0.3"
           d="M 56.88,261.06673 H 1139.04" /></g></g><g
       id="g248"><g
         transform="translate(29.88,256.88704)"
         id="g250"><text
           id="text254"
           style="font-variant:normal;font-weight:normal;font-size:11px;font-family:'DejaVu Sans';-inkscape-font-specification:DejaVuSans;writing-mode:lr-tb;fill:#262626;fill-opacity:1;fill-rule:nonzero;stroke:none"
           transform="scale(1,-1)"><tspan
             id="tspan252"
             y="0"
             x="0 6.9959998 10.494">0.4</tspan></text>
</g></g><g
       id="g256"><g
         clip-path="url(#clipPath262)"
         id="g258"><path
           id="path264"
           style="fill:none;stroke:#cccccc;stroke-width:1;stroke-linecap:round;stroke-linejoin:round;stroke-miterlimit:10;stroke-dasharray:none;stroke-opacity:0.3"
           d="M 56.88,342.75052 H 1139.04" /></g></g><g
       id="g266"><g
         transform="translate(29.88,338.57083)"
         id="g268"><text
           id="text272"
           style="font-variant:normal;font-weight:normal;font-size:11px;font-family:'DejaVu Sans';-inkscape-font-specification:DejaVuSans;writing-mode:lr-tb;fill:#262626;fill-opacity:1;fill-rule:nonzero;stroke:none"
           transform="scale(1,-1)"><tspan
             id="tspan270"
             y="0"
             x="0 6.9959998 10.494">0.6</tspan></text>
</g></g><g
       id="g274"><g
         clip-path="url(#clipPath280)"
         id="g276"><path
           id="path282"
           style="fill:none;stroke:#cccccc;stroke-width:1;stroke-linecap:round;stroke-linejoin:round;stroke-miterlimit:10;stroke-dasharray:none;stroke-opacity:0.3"
           d="M 56.88,424.43431 H 1139.04" /></g></g><g
       id="g284"><g
         transform="translate(29.88,420.25463)"
         id="g286"><text
           id="text290"
           style="font-variant:normal;font-weight:normal;font-size:11px;font-family:'DejaVu Sans';-inkscape-font-specification:DejaVuSans;writing-mode:lr-tb;fill:#262626;fill-opacity:1;fill-rule:nonzero;stroke:none"
           transform="scale(1,-1)"><tspan
             id="tspan288"
             y="0"
             x="0 6.9959998 10.494">0.8</tspan></text>
</g></g><g
       id="g292"><g
         clip-path="url(#clipPath298)"
         id="g294"><path
           id="path300"
           style="fill:none;stroke:#cccccc;stroke-width:1;stroke-linecap:round;stroke-linejoin:round;stroke-miterlimit:10;stroke-dasharray:none;stroke-opacity:0.3"
           d="M 56.88,506.1181 H 1139.04" /></g></g><g
       id="g302"><g
         transform="translate(29.88,501.93842)"
         id="g304"><text
           id="text308"
           style="font-variant:normal;font-weight:normal;font-size:11px;font-family:'DejaVu Sans';-inkscape-font-specification:DejaVuSans;writing-mode:lr-tb;fill:#262626;fill-opacity:1;fill-rule:nonzero;stroke:none"
           transform="scale(1,-1)"><tspan
             id="tspan306"
             y="0"
             x="0 6.9959998 10.494">1.0</tspan></text>
</g><g
         transform="rotate(90,-66.303376,89.683376)"
         id="g310"><text
           id="text314"
           style="font-variant:normal;font-weight:normal;font-size:12px;font-family:'DejaVu Sans';-inkscape-font-specification:DejaVuSans;writing-mode:lr-tb;fill:#262626;fill-opacity:1;fill-rule:nonzero;stroke:none"
           transform="scale(1,-1)"><tspan
             id="tspan312"
             y="0"
             x="0 7.5048752 14.608875 21.988874 26.920876 34.276875 41.896873 49.276875 53.092876 62.116875 69.472878 74.176872 81.556877 85.372871 92.992874 100.61288 107.99287 115.37287 121.97288 129.58087 133.39688 138.07687 145.70888 155.76488 163.37288 170.72888 175.43288 182.81288 186.62888 192.88087 200.50087 207.88087 215.26088 221.86087 229.46887 233.28488 237.10088 244.73288 254.78888 261.38889 264.72488 272.10489 279.46088 287.06888">Average Hate Speech (0=hate speech, 1=clean)</tspan></text>
</g></g><g
       id="g316"><g
         clip-path="url(#clipPath322)"
         id="g318"><path
           id="path324"
           style="fill:#808080;fill-opacity:0.7;fill-rule:nonzero;stroke:#ffffff;stroke-width:1;stroke-linecap:butt;stroke-linejoin:miter;stroke-miterlimit:10;stroke-dasharray:none;stroke-opacity:0.7"
           d="m 106.06909,97.699149 h 25.22518 V 441.93798 h -25.22518 z" /></g></g><g
       id="g326"><g
         clip-path="url(#clipPath332)"
         id="g328"><path
           id="path334"
           style="fill:#808080;fill-opacity:0.7;fill-rule:nonzero;stroke:#ffffff;stroke-width:1;stroke-linecap:butt;stroke-linejoin:miter;stroke-miterlimit:10;stroke-dasharray:none;stroke-opacity:0.7"
           d="m 206.96979,97.699149 h 25.22517 V 452.73202 h -25.22517 z" /></g></g><g
       id="g336"><g
         clip-path="url(#clipPath342)"
         id="g338"><path
           id="path344"
           style="fill:#808080;fill-opacity:0.7;fill-rule:nonzero;stroke:#ffffff;stroke-width:1;stroke-linecap:butt;stroke-linejoin:miter;stroke-miterlimit:10;stroke-dasharray:none;stroke-opacity:0.7"
           d="m 307.87049,97.699149 h 25.22517 V 478.01144 h -25.22517 z" /></g></g><g
       id="g346"><g
         clip-path="url(#clipPath352)"
         id="g348"><path
           id="path354"
           style="fill:#808080;fill-opacity:0.7;fill-rule:nonzero;stroke:#ffffff;stroke-width:1;stroke-linecap:butt;stroke-linejoin:miter;stroke-miterlimit:10;stroke-dasharray:none;stroke-opacity:0.7"
           d="m 408.77119,97.699149 h 25.22517 V 483.72438 h -25.22517 z" /></g></g><g
       id="g356"><g
         clip-path="url(#clipPath362)"
         id="g358"><path
           id="path364"
           style="fill:#808080;fill-opacity:0.7;fill-rule:nonzero;stroke:#ffffff;stroke-width:1;stroke-linecap:butt;stroke-linejoin:miter;stroke-miterlimit:10;stroke-dasharray:none;stroke-opacity:0.7"
           d="m 509.67189,97.699149 h 25.22517 V 486.16962 h -25.22517 z" /></g></g><g
       id="g366"><g
         clip-path="url(#clipPath372)"
         id="g368"><path
           id="path374"
           style="fill:#808080;fill-opacity:0.7;fill-rule:nonzero;stroke:#ffffff;stroke-width:1;stroke-linecap:butt;stroke-linejoin:miter;stroke-miterlimit:10;stroke-dasharray:none;stroke-opacity:0.7"
           d="m 610.57259,97.699149 h 25.22517 V 487.00889 h -25.22517 z" /></g></g><g
       id="g376"><g
         clip-path="url(#clipPath382)"
         id="g378"><path
           id="path384"
           style="fill:#808080;fill-opacity:0.7;fill-rule:nonzero;stroke:#ffffff;stroke-width:1;stroke-linecap:butt;stroke-linejoin:miter;stroke-miterlimit:10;stroke-dasharray:none;stroke-opacity:0.7"
           d="m 711.47329,97.699149 h 25.22517 V 490.75753 h -25.22517 z" /></g></g><g
       id="g386"><g
         clip-path="url(#clipPath392)"
         id="g388"><path
           id="path394"
           style="fill:#808080;fill-opacity:0.7;fill-rule:nonzero;stroke:#ffffff;stroke-width:1;stroke-linecap:butt;stroke-linejoin:miter;stroke-miterlimit:10;stroke-dasharray:none;stroke-opacity:0.7"
           d="m 812.37399,97.699149 h 25.22517 V 492.77779 h -25.22517 z" /></g></g><g
       id="g396"><g
         clip-path="url(#clipPath402)"
         id="g398"><path
           id="path404"
           style="fill:#808080;fill-opacity:0.7;fill-rule:nonzero;stroke:#ffffff;stroke-width:1;stroke-linecap:butt;stroke-linejoin:miter;stroke-miterlimit:10;stroke-dasharray:none;stroke-opacity:0.7"
           d="m 913.27469,97.699149 h 25.22517 V 495.57057 h -25.22517 z" /></g></g><g
       id="g406"><g
         clip-path="url(#clipPath412)"
         id="g408"><path
           id="path414"
           style="fill:#808080;fill-opacity:0.7;fill-rule:nonzero;stroke:#ffffff;stroke-width:1;stroke-linecap:butt;stroke-linejoin:miter;stroke-miterlimit:10;stroke-dasharray:none;stroke-opacity:0.7"
           d="m 1014.1754,97.699149 h 25.2252 V 504.49739 h -25.2252 z" /></g></g><g
       id="g416"><g
         clip-path="url(#clipPath422)"
         id="g418"><path
           id="path424"
           style="fill:#0000ff;fill-opacity:0.7;fill-rule:nonzero;stroke:#ffffff;stroke-width:1;stroke-linecap:butt;stroke-linejoin:miter;stroke-miterlimit:10;stroke-dasharray:none;stroke-opacity:0.7"
           d="m 131.29427,97.699149 h 25.22517 V 465.91106 h -25.22517 z" /></g></g><g
       id="g426"><g
         clip-path="url(#clipPath432)"
         id="g428"><path
           id="path434"
           style="fill:#0000ff;fill-opacity:0.7;fill-rule:nonzero;stroke:#ffffff;stroke-width:1;stroke-linecap:butt;stroke-linejoin:miter;stroke-miterlimit:10;stroke-dasharray:none;stroke-opacity:0.7"
           d="m 232.19496,97.699149 h 25.22518 V 467.65567 h -25.22518 z" /></g></g><g
       id="g436"><g
         clip-path="url(#clipPath442)"
         id="g438"><path
           id="path444"
           style="fill:#0000ff;fill-opacity:0.7;fill-rule:nonzero;stroke:#ffffff;stroke-width:1;stroke-linecap:butt;stroke-linejoin:miter;stroke-miterlimit:10;stroke-dasharray:none;stroke-opacity:0.7"
           d="m 333.09566,97.699149 h 25.22518 V 475.94467 h -25.22518 z" /></g></g><g
       id="g446"><g
         clip-path="url(#clipPath452)"
         id="g448"><path
           id="path454"
           style="fill:#0000ff;fill-opacity:0.7;fill-rule:nonzero;stroke:#ffffff;stroke-width:1;stroke-linecap:butt;stroke-linejoin:miter;stroke-miterlimit:10;stroke-dasharray:none;stroke-opacity:0.7"
           d="m 433.99636,97.699149 h 25.22518 V 488.90826 h -25.22518 z" /></g></g><g
       id="g456"><g
         clip-path="url(#clipPath462)"
         id="g458"><path
           id="path464"
           style="fill:#0000ff;fill-opacity:0.7;fill-rule:nonzero;stroke:#ffffff;stroke-width:1;stroke-linecap:butt;stroke-linejoin:miter;stroke-miterlimit:10;stroke-dasharray:none;stroke-opacity:0.7"
           d="m 534.89706,97.699149 h 25.22518 V 485.1898 h -25.22518 z" /></g></g><g
       id="g466"><g
         clip-path="url(#clipPath472)"
         id="g468"><path
           id="path474"
           style="fill:#0000ff;fill-opacity:0.7;fill-rule:nonzero;stroke:#ffffff;stroke-width:1;stroke-linecap:butt;stroke-linejoin:miter;stroke-miterlimit:10;stroke-dasharray:none;stroke-opacity:0.7"
           d="m 635.79776,97.699149 h 25.22518 V 485.31899 h -25.22518 z" /></g></g><g
       id="g476"><g
         clip-path="url(#clipPath482)"
         id="g478"><path
           id="path484"
           style="fill:#0000ff;fill-opacity:0.7;fill-rule:nonzero;stroke:#ffffff;stroke-width:1;stroke-linecap:butt;stroke-linejoin:miter;stroke-miterlimit:10;stroke-dasharray:none;stroke-opacity:0.7"
           d="m 736.69846,97.699149 h 25.22518 V 493.38278 h -25.22518 z" /></g></g><g
       id="g486"><g
         clip-path="url(#clipPath492)"
         id="g488"><path
           id="path494"
           style="fill:#0000ff;fill-opacity:0.7;fill-rule:nonzero;stroke:#ffffff;stroke-width:1;stroke-linecap:butt;stroke-linejoin:miter;stroke-miterlimit:10;stroke-dasharray:none;stroke-opacity:0.7"
           d="m 837.59916,97.699149 h 25.22518 V 491.42037 h -25.22518 z" /></g></g><g
       id="g496"><g
         clip-path="url(#clipPath502)"
         id="g498"><path
           id="path504"
           style="fill:#0000ff;fill-opacity:0.7;fill-rule:nonzero;stroke:#ffffff;stroke-width:1;stroke-linecap:butt;stroke-linejoin:miter;stroke-miterlimit:10;stroke-dasharray:none;stroke-opacity:0.7"
           d="m 938.49986,97.699149 h 25.22518 V 494.39922 h -25.22518 z" /></g></g><g
       id="g506"><g
         clip-path="url(#clipPath512)"
         id="g508"><path
           id="path514"
           style="fill:#0000ff;fill-opacity:0.7;fill-rule:nonzero;stroke:#ffffff;stroke-width:1;stroke-linecap:butt;stroke-linejoin:miter;stroke-miterlimit:10;stroke-dasharray:none;stroke-opacity:0.7"
           d="m 1039.4006,97.699149 h 25.2251 V 506.1181 h -25.2251 z" /></g></g><g
       id="g516"><g
         clip-path="url(#clipPath522)"
         id="g518"><path
           id="path524"
           style="fill:#ff0000;fill-opacity:0.7;fill-rule:nonzero;stroke:#ffffff;stroke-width:1;stroke-linecap:butt;stroke-linejoin:miter;stroke-miterlimit:10;stroke-dasharray:none;stroke-opacity:0.7"
           d="m 156.51944,97.699149 h 25.22517 V 434.78682 h -25.22517 z" /></g></g><g
       id="g526"><g
         clip-path="url(#clipPath532)"
         id="g528"><path
           id="path534"
           style="fill:#ff0000;fill-opacity:0.7;fill-rule:nonzero;stroke:#ffffff;stroke-width:1;stroke-linecap:butt;stroke-linejoin:miter;stroke-miterlimit:10;stroke-dasharray:none;stroke-opacity:0.7"
           d="m 257.42014,97.699149 h 25.22517 V 439.31787 h -25.22517 z" /></g></g><g
       id="g536"><g
         clip-path="url(#clipPath542)"
         id="g538"><path
           id="path544"
           style="fill:#ff0000;fill-opacity:0.7;fill-rule:nonzero;stroke:#ffffff;stroke-width:1;stroke-linecap:butt;stroke-linejoin:miter;stroke-miterlimit:10;stroke-dasharray:none;stroke-opacity:0.7"
           d="m 358.32084,97.699149 h 25.22517 V 480.43403 h -25.22517 z" /></g></g><g
       id="g546"><g
         clip-path="url(#clipPath552)"
         id="g548"><path
           id="path554"
           style="fill:#ff0000;fill-opacity:0.7;fill-rule:nonzero;stroke:#ffffff;stroke-width:1;stroke-linecap:butt;stroke-linejoin:miter;stroke-miterlimit:10;stroke-dasharray:none;stroke-opacity:0.7"
           d="m 459.22154,97.699149 h 25.22517 V 478.3699 h -25.22517 z" /></g></g><g
       id="g556"><g
         clip-path="url(#clipPath562)"
         id="g558"><path
           id="path564"
           style="fill:#ff0000;fill-opacity:0.7;fill-rule:nonzero;stroke:#ffffff;stroke-width:1;stroke-linecap:butt;stroke-linejoin:miter;stroke-miterlimit:10;stroke-dasharray:none;stroke-opacity:0.7"
           d="m 560.12224,97.699149 h 25.22517 V 488.5628 h -25.22517 z" /></g></g><g
       id="g566"><g
         clip-path="url(#clipPath572)"
         id="g568"><path
           id="path574"
           style="fill:#ff0000;fill-opacity:0.7;fill-rule:nonzero;stroke:#ffffff;stroke-width:1;stroke-linecap:butt;stroke-linejoin:miter;stroke-miterlimit:10;stroke-dasharray:none;stroke-opacity:0.7"
           d="m 661.02294,97.699149 h 25.22517 V 488.18752 h -25.22517 z" /></g></g><g
       id="g576"><g
         clip-path="url(#clipPath582)"
         id="g578"><path
           id="path584"
           style="fill:#ff0000;fill-opacity:0.7;fill-rule:nonzero;stroke:#ffffff;stroke-width:1;stroke-linecap:butt;stroke-linejoin:miter;stroke-miterlimit:10;stroke-dasharray:none;stroke-opacity:0.7"
           d="m 761.92364,97.699149 h 25.22517 V 488.28808 h -25.22517 z" /></g></g><g
       id="g586"><g
         clip-path="url(#clipPath592)"
         id="g588"><path
           id="path594"
           style="fill:#ff0000;fill-opacity:0.7;fill-rule:nonzero;stroke:#ffffff;stroke-width:1;stroke-linecap:butt;stroke-linejoin:miter;stroke-miterlimit:10;stroke-dasharray:none;stroke-opacity:0.7"
           d="m 862.82434,97.699149 h 25.22517 V 494.62187 h -25.22517 z" /></g></g><g
       id="g596"><g
         clip-path="url(#clipPath602)"
         id="g598"><path
           id="path604"
           style="fill:#ff0000;fill-opacity:0.7;fill-rule:nonzero;stroke:#ffffff;stroke-width:1;stroke-linecap:butt;stroke-linejoin:miter;stroke-miterlimit:10;stroke-dasharray:none;stroke-opacity:0.7"
           d="m 963.72504,97.699149 h 25.22517 V 497.10078 h -25.22517 z" /></g></g><g
       id="g606"><g
         clip-path="url(#clipPath612)"
         id="g608"><path
           id="path614"
           style="fill:#ff0000;fill-opacity:0.7;fill-rule:nonzero;stroke:#ffffff;stroke-width:1;stroke-linecap:butt;stroke-linejoin:miter;stroke-miterlimit:10;stroke-dasharray:none;stroke-opacity:0.7"
           d="m 1064.6257,97.699149 h 25.2252 V 502.43865 h -25.2252 z" /></g></g><g
       id="g616"><path
         id="path618"
         style="fill:none;stroke:#cccccc;stroke-width:1.25;stroke-linecap:square;stroke-linejoin:miter;stroke-miterlimit:10;stroke-dasharray:none;stroke-opacity:1"
         d="M 56.88,56.857253 V 546.96" /><path
         id="path620"
         style="fill:none;stroke:#cccccc;stroke-width:1.25;stroke-linecap:square;stroke-linejoin:miter;stroke-miterlimit:10;stroke-dasharray:none;stroke-opacity:1"
         d="M 1139.04,56.857253 V 546.96" /><path
         id="path622"
         style="fill:none;stroke:#cccccc;stroke-width:1.25;stroke-linecap:square;stroke-linejoin:miter;stroke-miterlimit:10;stroke-dasharray:none;stroke-opacity:1"
         d="M 56.88,56.857253 H 1139.04" /><path
         id="path624"
         style="fill:none;stroke:#cccccc;stroke-width:1.25;stroke-linecap:square;stroke-linejoin:miter;stroke-miterlimit:10;stroke-dasharray:none;stroke-opacity:1"
         d="M 56.88,546.96 H 1139.04" /><g
         transform="translate(138.78185,77.278201)"
         id="g626"><g
           transform="scale(0.014)"
           id="g628"><g
             id="g630"><g
               clip-path="url(#clipPath636)"
               id="g632"><path
                 id="path638"
                 style="fill:#ff0000;fill-opacity:1;fill-rule:nonzero;stroke:none"
                 d="m 559,453 c 0,53 -19,98 -57,135 -38,37 -84,56 -137,56 -53,0 -98,-19 -136,-56 -38,-37 -56,-82 -56,-135 0,-54 18,-98 56,-133 38,-35 83,-52 136,-52 53,0 99,17 137,52 38,35 57,79 57,133 z M 168,260 c -56,50 -83,114 -83,192 0,78 27,144 82,198 55,54 121,81 198,81 77,0 143,-27 199,-81 55,-54 83,-120 83,-198 0,-78 -28,-142 -83,-192 -44,-42 -96,-65 -154,-71 V 61 H 543 V 0 H 410 V -124 H 322 V 0 H 189 v 61 h 133 v 129 c -59,5 -110,28 -154,70 z" /></g></g></g></g><g
         transform="translate(239.68255,77.278201)"
         id="g640"><g
           transform="scale(0.014)"
           id="g642"><g
             id="g644"><g
               clip-path="url(#clipPath650)"
               id="g646"><path
                 id="path652"
                 style="fill:#ff0000;fill-opacity:1;fill-rule:nonzero;stroke:none"
                 d="m 559,453 c 0,53 -19,98 -57,135 -38,37 -84,56 -137,56 -53,0 -98,-19 -136,-56 -38,-37 -56,-82 -56,-135 0,-54 18,-98 56,-133 38,-35 83,-52 136,-52 53,0 99,17 137,52 38,35 57,79 57,133 z M 168,260 c -56,50 -83,114 -83,192 0,78 27,144 82,198 55,54 121,81 198,81 77,0 143,-27 199,-81 55,-54 83,-120 83,-198 0,-78 -28,-142 -83,-192 -44,-42 -96,-65 -154,-71 V 61 H 543 V 0 H 410 V -124 H 322 V 0 H 189 v 61 h 133 v 129 c -59,5 -110,28 -154,70 z" /></g></g></g></g><g
         transform="translate(339.43481,77.278201)"
         id="g654"><g
           transform="scale(0.014)"
           id="g656"><g
             id="g658"><g
               clip-path="url(#clipPath664)"
               id="g660"><path
                 id="path666"
                 style="fill:#0000ff;fill-opacity:1;fill-rule:nonzero;stroke:none"
                 d="m 553,257 c 0,53 -20,98 -58,135 -38,37 -84,56 -136,56 -53,0 -98,-19 -136,-56 -38,-37 -56,-82 -56,-135 0,-54 18,-98 56,-133 38,-36 83,-53 136,-53 52,0 98,17 136,53 38,35 58,79 58,133 z m 88,0 C 641,181 614,117 560,65 506,13 440,-13 362,-13 284,-13 217,12 162,64 106,115 79,179 79,257 c 0,77 28,143 84,199 56,56 122,82 196,79 74,-3 130,-21 167,-54 L 702,651 H 521 l 68,69 H 831 V 480 L 761,410 V 592 L 586,422 c 36,-48 55,-103 55,-165 z" /></g></g></g></g><g
         transform="translate(441.48395,77.278201)"
         id="g668"><g
           transform="scale(0.014)"
           id="g670"><g
             id="g672"><g
               clip-path="url(#clipPath678)"
               id="g674"><path
                 id="path680"
                 style="fill:#ff0000;fill-opacity:1;fill-rule:nonzero;stroke:none"
                 d="m 559,453 c 0,53 -19,98 -57,135 -38,37 -84,56 -137,56 -53,0 -98,-19 -136,-56 -38,-37 -56,-82 -56,-135 0,-54 18,-98 56,-133 38,-35 83,-52 136,-52 53,0 99,17 137,52 38,35 57,79 57,133 z M 168,260 c -56,50 -83,114 -83,192 0,78 27,144 82,198 55,54 121,81 198,81 77,0 143,-27 199,-81 55,-54 83,-120 83,-198 0,-78 -28,-142 -83,-192 -44,-42 -96,-65 -154,-71 V 61 H 543 V 0 H 410 V -124 H 322 V 0 H 189 v 61 h 133 v 129 c -59,5 -110,28 -154,70 z" /></g></g></g></g><g
         transform="translate(541.64246,77.278201)"
         id="g682"><text
           id="text686"
           style="font-variant:normal;font-weight:bold;font-size:14px;font-family:'DejaVu Sans';-inkscape-font-specification:DejaVuSans-Bold;writing-mode:lr-tb;fill:#800080;fill-opacity:1;fill-rule:nonzero;stroke:none"
           transform="scale(1,-1)"><tspan
             id="tspan684"
             y="0"
             x="0">=</tspan></text>
</g><g
         transform="translate(642.54316,77.278201)"
         id="g688"><text
           id="text692"
           style="font-variant:normal;font-weight:bold;font-size:14px;font-family:'DejaVu Sans';-inkscape-font-specification:DejaVuSans-Bold;writing-mode:lr-tb;fill:#800080;fill-opacity:1;fill-rule:nonzero;stroke:none"
           transform="scale(1,-1)"><tspan
             id="tspan690"
             y="0"
             x="0">=</tspan></text>
</g><g
         transform="translate(744.18605,77.278201)"
         id="g694"><g
           transform="scale(0.014)"
           id="g696"><g
             id="g698"><g
               clip-path="url(#clipPath704)"
               id="g700"><path
                 id="path706"
                 style="fill:#ff0000;fill-opacity:1;fill-rule:nonzero;stroke:none"
                 d="m 559,453 c 0,53 -19,98 -57,135 -38,37 -84,56 -137,56 -53,0 -98,-19 -136,-56 -38,-37 -56,-82 -56,-135 0,-54 18,-98 56,-133 38,-35 83,-52 136,-52 53,0 99,17 137,52 38,35 57,79 57,133 z M 168,260 c -56,50 -83,114 -83,192 0,78 27,144 82,198 55,54 121,81 198,81 77,0 143,-27 199,-81 55,-54 83,-120 83,-198 0,-78 -28,-142 -83,-192 -44,-42 -96,-65 -154,-71 V 61 H 543 V 0 H 410 V -124 H 322 V 0 H 189 v 61 h 133 v 129 c -59,5 -110,28 -154,70 z" /></g></g></g></g><g
         transform="translate(844.34456,77.278201)"
         id="g708"><text
           id="text712"
           style="font-variant:normal;font-weight:bold;font-size:14px;font-family:'DejaVu Sans';-inkscape-font-specification:DejaVuSans-Bold;writing-mode:lr-tb;fill:#800080;fill-opacity:1;fill-rule:nonzero;stroke:none"
           transform="scale(1,-1)"><tspan
             id="tspan710"
             y="0"
             x="0">=</tspan></text>
</g><g
         transform="translate(945.24526,77.278201)"
         id="g714"><text
           id="text718"
           style="font-variant:normal;font-weight:bold;font-size:14px;font-family:'DejaVu Sans';-inkscape-font-specification:DejaVuSans-Bold;writing-mode:lr-tb;fill:#800080;fill-opacity:1;fill-rule:nonzero;stroke:none"
           transform="scale(1,-1)"><tspan
             id="tspan716"
             y="0"
             x="0">=</tspan></text>
</g><g
         transform="translate(1046.146,77.278201)"
         id="g720"><text
           id="text724"
           style="font-variant:normal;font-weight:bold;font-size:14px;font-family:'DejaVu Sans';-inkscape-font-specification:DejaVuSans-Bold;writing-mode:lr-tb;fill:#800080;fill-opacity:1;fill-rule:nonzero;stroke:none"
           transform="scale(1,-1)"><tspan
             id="tspan722"
             y="0"
             x="0">=</tspan></text>
</g><g
         transform="translate(503.67875,552.96)"
         id="g726"><text
           id="text730"
           style="font-variant:normal;font-weight:normal;font-size:12px;font-family:'DejaVu Sans';-inkscape-font-specification:DejaVuSans;writing-mode:lr-tb;fill:#262626;fill-opacity:1;fill-rule:nonzero;stroke:none"
           transform="scale(1,-1)"><tspan
             id="tspan728"
             y="0"
             x="0 8.3760004 15.72 27.408001 39.096001 46.703999 54.312 57.647999 62.352001 69.456001 73.272003 80.891998 88.272003 95.879997 100.584 103.92 115.608 122.988 130.59599 135.3 139.116 147.32401 154.93201 162.28799 165.62399 172.728 178.98 182.31599">Community Sentiment Analysis</tspan></text>
</g><path
         id="path732"
         style="fill:#ffffff;fill-opacity:0.8;fill-rule:nonzero;stroke:#cccccc;stroke-width:1;stroke-linecap:butt;stroke-linejoin:miter;stroke-miterlimit:10;stroke-dasharray:none;stroke-opacity:0.8"
         d="m 1056.39,489.73812 h 74.95 c 1.4667,0 2.2,0.73334 2.2,2.2 V 539.26 c 0,1.46667 -0.7333,2.2 -2.2,2.2 h -74.95 c -1.4667,0 -2.2,-0.73333 -2.2,-2.2 v -47.32188 c 0,-1.46666 0.7333,-2.2 2.2,-2.2 z" /><path
         id="path734"
         style="fill:#808080;fill-opacity:0.7;fill-rule:nonzero;stroke:#ffffff;stroke-width:1;stroke-linecap:butt;stroke-linejoin:miter;stroke-miterlimit:10;stroke-dasharray:none;stroke-opacity:0.7"
         d="m 1058.59,528.70062 h 22 v 7.7 h -22 z" /><g
         transform="translate(1089.39,528.70062)"
         id="g736"><text
           id="text740"
           style="font-variant:normal;font-weight:normal;font-size:11px;font-family:'DejaVu Sans';-inkscape-font-specification:DejaVuSans;writing-mode:lr-tb;fill:#262626;fill-opacity:1;fill-rule:nonzero;stroke:none"
           transform="scale(1,-1)"><tspan
             id="tspan738"
             y="0"
             x="0 8.6569996 15.169 21.934 26.455 33.198002 36.256001">Overall</tspan></text>
</g><path
         id="path742"
         style="fill:#0000ff;fill-opacity:0.7;fill-rule:nonzero;stroke:#ffffff;stroke-width:1;stroke-linecap:butt;stroke-linejoin:miter;stroke-miterlimit:10;stroke-dasharray:none;stroke-opacity:0.7"
         d="m 1058.59,512.56 h 22 v 7.7 h -22 z" /><g
         transform="translate(1089.39,512.56)"
         id="g744"><text
           id="text748"
           style="font-variant:normal;font-weight:normal;font-size:11px;font-family:'DejaVu Sans';-inkscape-font-specification:DejaVuSans;writing-mode:lr-tb;fill:#262626;fill-opacity:1;fill-rule:nonzero;stroke:none"
           transform="scale(1,-1)"><tspan
             id="tspan746"
             y="0"
             x="0 9.493 16.236 19.294001">Male</tspan></text>
</g><path
         id="path750"
         style="fill:#ff0000;fill-opacity:0.7;fill-rule:nonzero;stroke:#ffffff;stroke-width:1;stroke-linecap:butt;stroke-linejoin:miter;stroke-miterlimit:10;stroke-dasharray:none;stroke-opacity:0.7"
         d="m 1058.59,496.41937 h 22 v 7.7 h -22 z" /><g
         transform="translate(1089.39,496.41937)"
         id="g752"><text
           id="text756"
           style="font-variant:normal;font-weight:normal;font-size:11px;font-family:'DejaVu Sans';-inkscape-font-specification:DejaVuSans;writing-mode:lr-tb;fill:#262626;fill-opacity:1;fill-rule:nonzero;stroke:none"
           transform="scale(1,-1)"><tspan
             id="tspan754"
             y="0"
             x="0 5.7312498 12.49625 23.210251 29.953251 33.01125">Female</tspan></text>
</g></g></g></svg>