<?xml version="1.0" encoding="utf-8" standalone="no"?>
<!DOCTYPE svg PUBLIC "-//W3C//DTD SVG 1.1//EN"
  "http://www.w3.org/Graphics/SVG/1.1/DTD/svg11.dtd">
<svg xmlns:xlink="http://www.w3.org/1999/xlink" width="792pt" height="360pt" viewBox="0 0 792 360" xmlns="http://www.w3.org/2000/svg" version="1.1">
 <metadata>
  <rdf:RDF xmlns:dc="http://purl.org/dc/elements/1.1/" xmlns:cc="http://creativecommons.org/ns#" xmlns:rdf="http://www.w3.org/1999/02/22-rdf-syntax-ns#">
   <cc:Work>
    <dc:type rdf:resource="http://purl.org/dc/dcmitype/StillImage"/>
    <dc:date>2025-05-09T11:42:30.081127</dc:date>
    <dc:format>image/svg+xml</dc:format>
    <dc:creator>
     <cc:Agent>
      <dc:title>Matplotlib v3.10.1, https://matplotlib.org/</dc:title>
     </cc:Agent>
    </dc:creator>
   </cc:Work>
  </rdf:RDF>
 </metadata>
 <defs>
  <style type="text/css">*{stroke-linejoin: round; stroke-linecap: butt}</style>
 </defs>
 <g id="figure_1">
  <g id="patch_1">
   <path d="M 0 360 
L 792 360 
L 792 0 
L 0 0 
z
" style="fill: #ffffff"/>
  </g>
  <g id="axes_1">
   <g id="patch_2">
    <path d="M 59.355021 293.151328 
L 779.04 293.151328 
L 779.04 29.04 
L 59.355021 29.04 
z
" style="fill: #eaeaf2"/>
   </g>
   <g id="matplotlib.axis_1">
    <g id="xtick_1">
     <g id="line2d_1">
      <path d="M 143.231695 293.151328 
L 143.231695 29.04 
" clip-path="url(#p0907b32a5b)" style="fill: none; stroke: #ffffff; stroke-linecap: round"/>
     </g>
     <g id="text_1">
      <!-- 1996 -->
      <g style="fill: #262626" transform="translate(135.480258 328.35698) rotate(-45) scale(0.11 -0.11)">
       <defs>
        <path id="DejaVuSans-31" d="M 794 531 
L 1825 531 
L 1825 4091 
L 703 3866 
L 703 4441 
L 1819 4666 
L 2450 4666 
L 2450 531 
L 3481 531 
L 3481 0 
L 794 0 
L 794 531 
z
" transform="scale(0.015625)"/>
        <path id="DejaVuSans-39" d="M 703 97 
L 703 672 
Q 941 559 1184 500 
Q 1428 441 1663 441 
Q 2288 441 2617 861 
Q 2947 1281 2994 2138 
Q 2813 1869 2534 1725 
Q 2256 1581 1919 1581 
Q 1219 1581 811 2004 
Q 403 2428 403 3163 
Q 403 3881 828 4315 
Q 1253 4750 1959 4750 
Q 2769 4750 3195 4129 
Q 3622 3509 3622 2328 
Q 3622 1225 3098 567 
Q 2575 -91 1691 -91 
Q 1453 -91 1209 -44 
Q 966 3 703 97 
z
M 1959 2075 
Q 2384 2075 2632 2365 
Q 2881 2656 2881 3163 
Q 2881 3666 2632 3958 
Q 2384 4250 1959 4250 
Q 1534 4250 1286 3958 
Q 1038 3666 1038 3163 
Q 1038 2656 1286 2365 
Q 1534 2075 1959 2075 
z
" transform="scale(0.015625)"/>
        <path id="DejaVuSans-36" d="M 2113 2584 
Q 1688 2584 1439 2293 
Q 1191 2003 1191 1497 
Q 1191 994 1439 701 
Q 1688 409 2113 409 
Q 2538 409 2786 701 
Q 3034 994 3034 1497 
Q 3034 2003 2786 2293 
Q 2538 2584 2113 2584 
z
M 3366 4563 
L 3366 3988 
Q 3128 4100 2886 4159 
Q 2644 4219 2406 4219 
Q 1781 4219 1451 3797 
Q 1122 3375 1075 2522 
Q 1259 2794 1537 2939 
Q 1816 3084 2150 3084 
Q 2853 3084 3261 2657 
Q 3669 2231 3669 1497 
Q 3669 778 3244 343 
Q 2819 -91 2113 -91 
Q 1303 -91 875 529 
Q 447 1150 447 2328 
Q 447 3434 972 4092 
Q 1497 4750 2381 4750 
Q 2619 4750 2861 4703 
Q 3103 4656 3366 4563 
z
" transform="scale(0.015625)"/>
       </defs>
       <use xlink:href="#DejaVuSans-31"/>
       <use xlink:href="#DejaVuSans-39" transform="translate(63.623047 0)"/>
       <use xlink:href="#DejaVuSans-39" transform="translate(127.246094 0)"/>
       <use xlink:href="#DejaVuSans-36" transform="translate(190.869141 0)"/>
      </g>
     </g>
    </g>
    <g id="xtick_2">
     <g id="line2d_2">
      <path d="M 230.966665 293.151328 
L 230.966665 29.04 
" clip-path="url(#p0907b32a5b)" style="fill: none; stroke: #ffffff; stroke-linecap: round"/>
     </g>
     <g id="text_2">
      <!-- 2000 -->
      <g style="fill: #262626" transform="translate(223.215228 328.35698) rotate(-45) scale(0.11 -0.11)">
       <defs>
        <path id="DejaVuSans-32" d="M 1228 531 
L 3431 531 
L 3431 0 
L 469 0 
L 469 531 
Q 828 903 1448 1529 
Q 2069 2156 2228 2338 
Q 2531 2678 2651 2914 
Q 2772 3150 2772 3378 
Q 2772 3750 2511 3984 
Q 2250 4219 1831 4219 
Q 1534 4219 1204 4116 
Q 875 4013 500 3803 
L 500 4441 
Q 881 4594 1212 4672 
Q 1544 4750 1819 4750 
Q 2544 4750 2975 4387 
Q 3406 4025 3406 3419 
Q 3406 3131 3298 2873 
Q 3191 2616 2906 2266 
Q 2828 2175 2409 1742 
Q 1991 1309 1228 531 
z
" transform="scale(0.015625)"/>
        <path id="DejaVuSans-30" d="M 2034 4250 
Q 1547 4250 1301 3770 
Q 1056 3291 1056 2328 
Q 1056 1369 1301 889 
Q 1547 409 2034 409 
Q 2525 409 2770 889 
Q 3016 1369 3016 2328 
Q 3016 3291 2770 3770 
Q 2525 4250 2034 4250 
z
M 2034 4750 
Q 2819 4750 3233 4129 
Q 3647 3509 3647 2328 
Q 3647 1150 3233 529 
Q 2819 -91 2034 -91 
Q 1250 -91 836 529 
Q 422 1150 422 2328 
Q 422 3509 836 4129 
Q 1250 4750 2034 4750 
z
" transform="scale(0.015625)"/>
       </defs>
       <use xlink:href="#DejaVuSans-32"/>
       <use xlink:href="#DejaVuSans-30" transform="translate(63.623047 0)"/>
       <use xlink:href="#DejaVuSans-30" transform="translate(127.246094 0)"/>
       <use xlink:href="#DejaVuSans-30" transform="translate(190.869141 0)"/>
      </g>
     </g>
    </g>
    <g id="xtick_3">
     <g id="line2d_3">
      <path d="M 318.701636 293.151328 
L 318.701636 29.04 
" clip-path="url(#p0907b32a5b)" style="fill: none; stroke: #ffffff; stroke-linecap: round"/>
     </g>
     <g id="text_3">
      <!-- 2004 -->
      <g style="fill: #262626" transform="translate(310.950199 328.35698) rotate(-45) scale(0.11 -0.11)">
       <defs>
        <path id="DejaVuSans-34" d="M 2419 4116 
L 825 1625 
L 2419 1625 
L 2419 4116 
z
M 2253 4666 
L 3047 4666 
L 3047 1625 
L 3713 1625 
L 3713 1100 
L 3047 1100 
L 3047 0 
L 2419 0 
L 2419 1100 
L 313 1100 
L 313 1709 
L 2253 4666 
z
" transform="scale(0.015625)"/>
       </defs>
       <use xlink:href="#DejaVuSans-32"/>
       <use xlink:href="#DejaVuSans-30" transform="translate(63.623047 0)"/>
       <use xlink:href="#DejaVuSans-30" transform="translate(127.246094 0)"/>
       <use xlink:href="#DejaVuSans-34" transform="translate(190.869141 0)"/>
      </g>
     </g>
    </g>
    <g id="xtick_4">
     <g id="line2d_4">
      <path d="M 406.436606 293.151328 
L 406.436606 29.04 
" clip-path="url(#p0907b32a5b)" style="fill: none; stroke: #ffffff; stroke-linecap: round"/>
     </g>
     <g id="text_4">
      <!-- 2008 -->
      <g style="fill: #262626" transform="translate(398.685169 328.35698) rotate(-45) scale(0.11 -0.11)">
       <defs>
        <path id="DejaVuSans-38" d="M 2034 2216 
Q 1584 2216 1326 1975 
Q 1069 1734 1069 1313 
Q 1069 891 1326 650 
Q 1584 409 2034 409 
Q 2484 409 2743 651 
Q 3003 894 3003 1313 
Q 3003 1734 2745 1975 
Q 2488 2216 2034 2216 
z
M 1403 2484 
Q 997 2584 770 2862 
Q 544 3141 544 3541 
Q 544 4100 942 4425 
Q 1341 4750 2034 4750 
Q 2731 4750 3128 4425 
Q 3525 4100 3525 3541 
Q 3525 3141 3298 2862 
Q 3072 2584 2669 2484 
Q 3125 2378 3379 2068 
Q 3634 1759 3634 1313 
Q 3634 634 3220 271 
Q 2806 -91 2034 -91 
Q 1263 -91 848 271 
Q 434 634 434 1313 
Q 434 1759 690 2068 
Q 947 2378 1403 2484 
z
M 1172 3481 
Q 1172 3119 1398 2916 
Q 1625 2713 2034 2713 
Q 2441 2713 2670 2916 
Q 2900 3119 2900 3481 
Q 2900 3844 2670 4047 
Q 2441 4250 2034 4250 
Q 1625 4250 1398 4047 
Q 1172 3844 1172 3481 
z
" transform="scale(0.015625)"/>
       </defs>
       <use xlink:href="#DejaVuSans-32"/>
       <use xlink:href="#DejaVuSans-30" transform="translate(63.623047 0)"/>
       <use xlink:href="#DejaVuSans-30" transform="translate(127.246094 0)"/>
       <use xlink:href="#DejaVuSans-38" transform="translate(190.869141 0)"/>
      </g>
     </g>
    </g>
    <g id="xtick_5">
     <g id="line2d_5">
      <path d="M 494.171577 293.151328 
L 494.171577 29.04 
" clip-path="url(#p0907b32a5b)" style="fill: none; stroke: #ffffff; stroke-linecap: round"/>
     </g>
     <g id="text_5">
      <!-- 2012 -->
      <g style="fill: #262626" transform="translate(486.42014 328.35698) rotate(-45) scale(0.11 -0.11)">
       <use xlink:href="#DejaVuSans-32"/>
       <use xlink:href="#DejaVuSans-30" transform="translate(63.623047 0)"/>
       <use xlink:href="#DejaVuSans-31" transform="translate(127.246094 0)"/>
       <use xlink:href="#DejaVuSans-32" transform="translate(190.869141 0)"/>
      </g>
     </g>
    </g>
    <g id="xtick_6">
     <g id="line2d_6">
      <path d="M 581.906547 293.151328 
L 581.906547 29.04 
" clip-path="url(#p0907b32a5b)" style="fill: none; stroke: #ffffff; stroke-linecap: round"/>
     </g>
     <g id="text_6">
      <!-- 2016 -->
      <g style="fill: #262626" transform="translate(574.15511 328.35698) rotate(-45) scale(0.11 -0.11)">
       <use xlink:href="#DejaVuSans-32"/>
       <use xlink:href="#DejaVuSans-30" transform="translate(63.623047 0)"/>
       <use xlink:href="#DejaVuSans-31" transform="translate(127.246094 0)"/>
       <use xlink:href="#DejaVuSans-36" transform="translate(190.869141 0)"/>
      </g>
     </g>
    </g>
    <g id="xtick_7">
     <g id="line2d_7">
      <path d="M 669.641518 293.151328 
L 669.641518 29.04 
" clip-path="url(#p0907b32a5b)" style="fill: none; stroke: #ffffff; stroke-linecap: round"/>
     </g>
     <g id="text_7">
      <!-- 2020 -->
      <g style="fill: #262626" transform="translate(661.890081 328.35698) rotate(-45) scale(0.11 -0.11)">
       <use xlink:href="#DejaVuSans-32"/>
       <use xlink:href="#DejaVuSans-30" transform="translate(63.623047 0)"/>
       <use xlink:href="#DejaVuSans-32" transform="translate(127.246094 0)"/>
       <use xlink:href="#DejaVuSans-30" transform="translate(190.869141 0)"/>
      </g>
     </g>
    </g>
    <g id="xtick_8">
     <g id="line2d_8">
      <path d="M 757.376488 293.151328 
L 757.376488 29.04 
" clip-path="url(#p0907b32a5b)" style="fill: none; stroke: #ffffff; stroke-linecap: round"/>
     </g>
     <g id="text_8">
      <!-- 2024 -->
      <g style="fill: #262626" transform="translate(749.625051 328.35698) rotate(-45) scale(0.11 -0.11)">
       <use xlink:href="#DejaVuSans-32"/>
       <use xlink:href="#DejaVuSans-30" transform="translate(63.623047 0)"/>
       <use xlink:href="#DejaVuSans-32" transform="translate(127.246094 0)"/>
       <use xlink:href="#DejaVuSans-34" transform="translate(190.869141 0)"/>
      </g>
     </g>
    </g>
    <g id="text_9">
     <!-- Date -->
     <g style="fill: #262626" transform="translate(404.856573 343.092722) scale(0.12 -0.12)">
      <defs>
       <path id="DejaVuSans-44" d="M 1259 4147 
L 1259 519 
L 2022 519 
Q 2988 519 3436 956 
Q 3884 1394 3884 2338 
Q 3884 3275 3436 3711 
Q 2988 4147 2022 4147 
L 1259 4147 
z
M 628 4666 
L 1925 4666 
Q 3281 4666 3915 4102 
Q 4550 3538 4550 2338 
Q 4550 1131 3912 565 
Q 3275 0 1925 0 
L 628 0 
L 628 4666 
z
" transform="scale(0.015625)"/>
       <path id="DejaVuSans-61" d="M 2194 1759 
Q 1497 1759 1228 1600 
Q 959 1441 959 1056 
Q 959 750 1161 570 
Q 1363 391 1709 391 
Q 2188 391 2477 730 
Q 2766 1069 2766 1631 
L 2766 1759 
L 2194 1759 
z
M 3341 1997 
L 3341 0 
L 2766 0 
L 2766 531 
Q 2569 213 2275 61 
Q 1981 -91 1556 -91 
Q 1019 -91 701 211 
Q 384 513 384 1019 
Q 384 1609 779 1909 
Q 1175 2209 1959 2209 
L 2766 2209 
L 2766 2266 
Q 2766 2663 2505 2880 
Q 2244 3097 1772 3097 
Q 1472 3097 1187 3025 
Q 903 2953 641 2809 
L 641 3341 
Q 956 3463 1253 3523 
Q 1550 3584 1831 3584 
Q 2591 3584 2966 3190 
Q 3341 2797 3341 1997 
z
" transform="scale(0.015625)"/>
       <path id="DejaVuSans-74" d="M 1172 4494 
L 1172 3500 
L 2356 3500 
L 2356 3053 
L 1172 3053 
L 1172 1153 
Q 1172 725 1289 603 
Q 1406 481 1766 481 
L 2356 481 
L 2356 0 
L 1766 0 
Q 1100 0 847 248 
Q 594 497 594 1153 
L 594 3053 
L 172 3053 
L 172 3500 
L 594 3500 
L 594 4494 
L 1172 4494 
z
" transform="scale(0.015625)"/>
       <path id="DejaVuSans-65" d="M 3597 1894 
L 3597 1613 
L 953 1613 
Q 991 1019 1311 708 
Q 1631 397 2203 397 
Q 2534 397 2845 478 
Q 3156 559 3463 722 
L 3463 178 
Q 3153 47 2828 -22 
Q 2503 -91 2169 -91 
Q 1331 -91 842 396 
Q 353 884 353 1716 
Q 353 2575 817 3079 
Q 1281 3584 2069 3584 
Q 2775 3584 3186 3129 
Q 3597 2675 3597 1894 
z
M 3022 2063 
Q 3016 2534 2758 2815 
Q 2500 3097 2075 3097 
Q 1594 3097 1305 2825 
Q 1016 2553 972 2059 
L 3022 2063 
z
" transform="scale(0.015625)"/>
      </defs>
      <use xlink:href="#DejaVuSans-44"/>
      <use xlink:href="#DejaVuSans-61" transform="translate(77.001953 0)"/>
      <use xlink:href="#DejaVuSans-74" transform="translate(138.28125 0)"/>
      <use xlink:href="#DejaVuSans-65" transform="translate(177.490234 0)"/>
     </g>
    </g>
   </g>
   <g id="matplotlib.axis_2">
    <g id="ytick_1">
     <g id="line2d_9">
      <path d="M 59.355021 281.146268 
L 779.04 281.146268 
" clip-path="url(#p0907b32a5b)" style="fill: none; stroke: #ffffff; stroke-linecap: round"/>
     </g>
     <g id="text_10">
      <!-- $\mathdefault{10^{0}}$ -->
      <g style="fill: #262626" transform="translate(30.495021 285.325408) scale(0.11 -0.11)">
       <use xlink:href="#DejaVuSans-31" transform="translate(0 0.765625)"/>
       <use xlink:href="#DejaVuSans-30" transform="translate(63.623047 0.765625)"/>
       <use xlink:href="#DejaVuSans-30" transform="translate(128.203125 39.046875) scale(0.7)"/>
      </g>
     </g>
    </g>
    <g id="ytick_2">
     <g id="line2d_10">
      <path d="M 59.355021 207.415917 
L 779.04 207.415917 
" clip-path="url(#p0907b32a5b)" style="fill: none; stroke: #ffffff; stroke-linecap: round"/>
     </g>
     <g id="text_11">
      <!-- $\mathdefault{10^{1}}$ -->
      <g style="fill: #262626" transform="translate(30.495021 211.595057) scale(0.11 -0.11)">
       <use xlink:href="#DejaVuSans-31" transform="translate(0 0.684375)"/>
       <use xlink:href="#DejaVuSans-30" transform="translate(63.623047 0.684375)"/>
       <use xlink:href="#DejaVuSans-31" transform="translate(128.203125 38.965625) scale(0.7)"/>
      </g>
     </g>
    </g>
    <g id="ytick_3">
     <g id="line2d_11">
      <path d="M 59.355021 133.685566 
L 779.04 133.685566 
" clip-path="url(#p0907b32a5b)" style="fill: none; stroke: #ffffff; stroke-linecap: round"/>
     </g>
     <g id="text_12">
      <!-- $\mathdefault{10^{2}}$ -->
      <g style="fill: #262626" transform="translate(30.495021 137.864706) scale(0.11 -0.11)">
       <use xlink:href="#DejaVuSans-31" transform="translate(0 0.765625)"/>
       <use xlink:href="#DejaVuSans-30" transform="translate(63.623047 0.765625)"/>
       <use xlink:href="#DejaVuSans-32" transform="translate(128.203125 39.046875) scale(0.7)"/>
      </g>
     </g>
    </g>
    <g id="ytick_4">
     <g id="line2d_12">
      <path d="M 59.355021 59.955215 
L 779.04 59.955215 
" clip-path="url(#p0907b32a5b)" style="fill: none; stroke: #ffffff; stroke-linecap: round"/>
     </g>
     <g id="text_13">
      <!-- $\mathdefault{10^{3}}$ -->
      <g style="fill: #262626" transform="translate(30.495021 64.134355) scale(0.11 -0.11)">
       <defs>
        <path id="DejaVuSans-33" d="M 2597 2516 
Q 3050 2419 3304 2112 
Q 3559 1806 3559 1356 
Q 3559 666 3084 287 
Q 2609 -91 1734 -91 
Q 1441 -91 1130 -33 
Q 819 25 488 141 
L 488 750 
Q 750 597 1062 519 
Q 1375 441 1716 441 
Q 2309 441 2620 675 
Q 2931 909 2931 1356 
Q 2931 1769 2642 2001 
Q 2353 2234 1838 2234 
L 1294 2234 
L 1294 2753 
L 1863 2753 
Q 2328 2753 2575 2939 
Q 2822 3125 2822 3475 
Q 2822 3834 2567 4026 
Q 2313 4219 1838 4219 
Q 1578 4219 1281 4162 
Q 984 4106 628 3988 
L 628 4550 
Q 988 4650 1302 4700 
Q 1616 4750 1894 4750 
Q 2613 4750 3031 4423 
Q 3450 4097 3450 3541 
Q 3450 3153 3228 2886 
Q 3006 2619 2597 2516 
z
" transform="scale(0.015625)"/>
       </defs>
       <use xlink:href="#DejaVuSans-31" transform="translate(0 0.765625)"/>
       <use xlink:href="#DejaVuSans-30" transform="translate(63.623047 0.765625)"/>
       <use xlink:href="#DejaVuSans-33" transform="translate(128.203125 39.046875) scale(0.7)"/>
      </g>
     </g>
    </g>
    <g id="ytick_5"/>
    <g id="ytick_6"/>
    <g id="ytick_7"/>
    <g id="ytick_8"/>
    <g id="ytick_9"/>
    <g id="ytick_10"/>
    <g id="ytick_11"/>
    <g id="ytick_12"/>
    <g id="ytick_13"/>
    <g id="ytick_14"/>
    <g id="ytick_15"/>
    <g id="ytick_16"/>
    <g id="ytick_17"/>
    <g id="ytick_18"/>
    <g id="ytick_19"/>
    <g id="ytick_20"/>
    <g id="ytick_21"/>
    <g id="ytick_22"/>
    <g id="ytick_23"/>
    <g id="ytick_24"/>
    <g id="ytick_25"/>
    <g id="ytick_26"/>
    <g id="ytick_27"/>
    <g id="ytick_28"/>
    <g id="ytick_29"/>
    <g id="ytick_30"/>
    <g id="ytick_31"/>
    <g id="ytick_32"/>
    <g id="text_14">
     <!-- Log(Number of Articles) -->
     <g style="fill: #262626" transform="translate(23.999396 232.569726) rotate(-90) scale(0.12 -0.12)">
      <defs>
       <path id="DejaVuSans-4c" d="M 628 4666 
L 1259 4666 
L 1259 531 
L 3531 531 
L 3531 0 
L 628 0 
L 628 4666 
z
" transform="scale(0.015625)"/>
       <path id="DejaVuSans-6f" d="M 1959 3097 
Q 1497 3097 1228 2736 
Q 959 2375 959 1747 
Q 959 1119 1226 758 
Q 1494 397 1959 397 
Q 2419 397 2687 759 
Q 2956 1122 2956 1747 
Q 2956 2369 2687 2733 
Q 2419 3097 1959 3097 
z
M 1959 3584 
Q 2709 3584 3137 3096 
Q 3566 2609 3566 1747 
Q 3566 888 3137 398 
Q 2709 -91 1959 -91 
Q 1206 -91 779 398 
Q 353 888 353 1747 
Q 353 2609 779 3096 
Q 1206 3584 1959 3584 
z
" transform="scale(0.015625)"/>
       <path id="DejaVuSans-67" d="M 2906 1791 
Q 2906 2416 2648 2759 
Q 2391 3103 1925 3103 
Q 1463 3103 1205 2759 
Q 947 2416 947 1791 
Q 947 1169 1205 825 
Q 1463 481 1925 481 
Q 2391 481 2648 825 
Q 2906 1169 2906 1791 
z
M 3481 434 
Q 3481 -459 3084 -895 
Q 2688 -1331 1869 -1331 
Q 1566 -1331 1297 -1286 
Q 1028 -1241 775 -1147 
L 775 -588 
Q 1028 -725 1275 -790 
Q 1522 -856 1778 -856 
Q 2344 -856 2625 -561 
Q 2906 -266 2906 331 
L 2906 616 
Q 2728 306 2450 153 
Q 2172 0 1784 0 
Q 1141 0 747 490 
Q 353 981 353 1791 
Q 353 2603 747 3093 
Q 1141 3584 1784 3584 
Q 2172 3584 2450 3431 
Q 2728 3278 2906 2969 
L 2906 3500 
L 3481 3500 
L 3481 434 
z
" transform="scale(0.015625)"/>
       <path id="DejaVuSans-28" d="M 1984 4856 
Q 1566 4138 1362 3434 
Q 1159 2731 1159 2009 
Q 1159 1288 1364 580 
Q 1569 -128 1984 -844 
L 1484 -844 
Q 1016 -109 783 600 
Q 550 1309 550 2009 
Q 550 2706 781 3412 
Q 1013 4119 1484 4856 
L 1984 4856 
z
" transform="scale(0.015625)"/>
       <path id="DejaVuSans-4e" d="M 628 4666 
L 1478 4666 
L 3547 763 
L 3547 4666 
L 4159 4666 
L 4159 0 
L 3309 0 
L 1241 3903 
L 1241 0 
L 628 0 
L 628 4666 
z
" transform="scale(0.015625)"/>
       <path id="DejaVuSans-75" d="M 544 1381 
L 544 3500 
L 1119 3500 
L 1119 1403 
Q 1119 906 1312 657 
Q 1506 409 1894 409 
Q 2359 409 2629 706 
Q 2900 1003 2900 1516 
L 2900 3500 
L 3475 3500 
L 3475 0 
L 2900 0 
L 2900 538 
Q 2691 219 2414 64 
Q 2138 -91 1772 -91 
Q 1169 -91 856 284 
Q 544 659 544 1381 
z
M 1991 3584 
L 1991 3584 
z
" transform="scale(0.015625)"/>
       <path id="DejaVuSans-6d" d="M 3328 2828 
Q 3544 3216 3844 3400 
Q 4144 3584 4550 3584 
Q 5097 3584 5394 3201 
Q 5691 2819 5691 2113 
L 5691 0 
L 5113 0 
L 5113 2094 
Q 5113 2597 4934 2840 
Q 4756 3084 4391 3084 
Q 3944 3084 3684 2787 
Q 3425 2491 3425 1978 
L 3425 0 
L 2847 0 
L 2847 2094 
Q 2847 2600 2669 2842 
Q 2491 3084 2119 3084 
Q 1678 3084 1418 2786 
Q 1159 2488 1159 1978 
L 1159 0 
L 581 0 
L 581 3500 
L 1159 3500 
L 1159 2956 
Q 1356 3278 1631 3431 
Q 1906 3584 2284 3584 
Q 2666 3584 2933 3390 
Q 3200 3197 3328 2828 
z
" transform="scale(0.015625)"/>
       <path id="DejaVuSans-62" d="M 3116 1747 
Q 3116 2381 2855 2742 
Q 2594 3103 2138 3103 
Q 1681 3103 1420 2742 
Q 1159 2381 1159 1747 
Q 1159 1113 1420 752 
Q 1681 391 2138 391 
Q 2594 391 2855 752 
Q 3116 1113 3116 1747 
z
M 1159 2969 
Q 1341 3281 1617 3432 
Q 1894 3584 2278 3584 
Q 2916 3584 3314 3078 
Q 3713 2572 3713 1747 
Q 3713 922 3314 415 
Q 2916 -91 2278 -91 
Q 1894 -91 1617 61 
Q 1341 213 1159 525 
L 1159 0 
L 581 0 
L 581 4863 
L 1159 4863 
L 1159 2969 
z
" transform="scale(0.015625)"/>
       <path id="DejaVuSans-72" d="M 2631 2963 
Q 2534 3019 2420 3045 
Q 2306 3072 2169 3072 
Q 1681 3072 1420 2755 
Q 1159 2438 1159 1844 
L 1159 0 
L 581 0 
L 581 3500 
L 1159 3500 
L 1159 2956 
Q 1341 3275 1631 3429 
Q 1922 3584 2338 3584 
Q 2397 3584 2469 3576 
Q 2541 3569 2628 3553 
L 2631 2963 
z
" transform="scale(0.015625)"/>
       <path id="DejaVuSans-20" transform="scale(0.015625)"/>
       <path id="DejaVuSans-66" d="M 2375 4863 
L 2375 4384 
L 1825 4384 
Q 1516 4384 1395 4259 
Q 1275 4134 1275 3809 
L 1275 3500 
L 2222 3500 
L 2222 3053 
L 1275 3053 
L 1275 0 
L 697 0 
L 697 3053 
L 147 3053 
L 147 3500 
L 697 3500 
L 697 3744 
Q 697 4328 969 4595 
Q 1241 4863 1831 4863 
L 2375 4863 
z
" transform="scale(0.015625)"/>
       <path id="DejaVuSans-41" d="M 2188 4044 
L 1331 1722 
L 3047 1722 
L 2188 4044 
z
M 1831 4666 
L 2547 4666 
L 4325 0 
L 3669 0 
L 3244 1197 
L 1141 1197 
L 716 0 
L 50 0 
L 1831 4666 
z
" transform="scale(0.015625)"/>
       <path id="DejaVuSans-69" d="M 603 3500 
L 1178 3500 
L 1178 0 
L 603 0 
L 603 3500 
z
M 603 4863 
L 1178 4863 
L 1178 4134 
L 603 4134 
L 603 4863 
z
" transform="scale(0.015625)"/>
       <path id="DejaVuSans-63" d="M 3122 3366 
L 3122 2828 
Q 2878 2963 2633 3030 
Q 2388 3097 2138 3097 
Q 1578 3097 1268 2742 
Q 959 2388 959 1747 
Q 959 1106 1268 751 
Q 1578 397 2138 397 
Q 2388 397 2633 464 
Q 2878 531 3122 666 
L 3122 134 
Q 2881 22 2623 -34 
Q 2366 -91 2075 -91 
Q 1284 -91 818 406 
Q 353 903 353 1747 
Q 353 2603 823 3093 
Q 1294 3584 2113 3584 
Q 2378 3584 2631 3529 
Q 2884 3475 3122 3366 
z
" transform="scale(0.015625)"/>
       <path id="DejaVuSans-6c" d="M 603 4863 
L 1178 4863 
L 1178 0 
L 603 0 
L 603 4863 
z
" transform="scale(0.015625)"/>
       <path id="DejaVuSans-73" d="M 2834 3397 
L 2834 2853 
Q 2591 2978 2328 3040 
Q 2066 3103 1784 3103 
Q 1356 3103 1142 2972 
Q 928 2841 928 2578 
Q 928 2378 1081 2264 
Q 1234 2150 1697 2047 
L 1894 2003 
Q 2506 1872 2764 1633 
Q 3022 1394 3022 966 
Q 3022 478 2636 193 
Q 2250 -91 1575 -91 
Q 1294 -91 989 -36 
Q 684 19 347 128 
L 347 722 
Q 666 556 975 473 
Q 1284 391 1588 391 
Q 1994 391 2212 530 
Q 2431 669 2431 922 
Q 2431 1156 2273 1281 
Q 2116 1406 1581 1522 
L 1381 1569 
Q 847 1681 609 1914 
Q 372 2147 372 2553 
Q 372 3047 722 3315 
Q 1072 3584 1716 3584 
Q 2034 3584 2315 3537 
Q 2597 3491 2834 3397 
z
" transform="scale(0.015625)"/>
       <path id="DejaVuSans-29" d="M 513 4856 
L 1013 4856 
Q 1481 4119 1714 3412 
Q 1947 2706 1947 2009 
Q 1947 1309 1714 600 
Q 1481 -109 1013 -844 
L 513 -844 
Q 928 -128 1133 580 
Q 1338 1288 1338 2009 
Q 1338 2731 1133 3434 
Q 928 4138 513 4856 
z
" transform="scale(0.015625)"/>
      </defs>
      <use xlink:href="#DejaVuSans-4c"/>
      <use xlink:href="#DejaVuSans-6f" transform="translate(53.962891 0)"/>
      <use xlink:href="#DejaVuSans-67" transform="translate(115.144531 0)"/>
      <use xlink:href="#DejaVuSans-28" transform="translate(178.621094 0)"/>
      <use xlink:href="#DejaVuSans-4e" transform="translate(217.634766 0)"/>
      <use xlink:href="#DejaVuSans-75" transform="translate(292.439453 0)"/>
      <use xlink:href="#DejaVuSans-6d" transform="translate(355.818359 0)"/>
      <use xlink:href="#DejaVuSans-62" transform="translate(453.230469 0)"/>
      <use xlink:href="#DejaVuSans-65" transform="translate(516.707031 0)"/>
      <use xlink:href="#DejaVuSans-72" transform="translate(578.230469 0)"/>
      <use xlink:href="#DejaVuSans-20" transform="translate(619.34375 0)"/>
      <use xlink:href="#DejaVuSans-6f" transform="translate(651.130859 0)"/>
      <use xlink:href="#DejaVuSans-66" transform="translate(712.3125 0)"/>
      <use xlink:href="#DejaVuSans-20" transform="translate(747.517578 0)"/>
      <use xlink:href="#DejaVuSans-41" transform="translate(779.304688 0)"/>
      <use xlink:href="#DejaVuSans-72" transform="translate(847.712891 0)"/>
      <use xlink:href="#DejaVuSans-74" transform="translate(888.826172 0)"/>
      <use xlink:href="#DejaVuSans-69" transform="translate(928.035156 0)"/>
      <use xlink:href="#DejaVuSans-63" transform="translate(955.818359 0)"/>
      <use xlink:href="#DejaVuSans-6c" transform="translate(1010.798828 0)"/>
      <use xlink:href="#DejaVuSans-65" transform="translate(1038.582031 0)"/>
      <use xlink:href="#DejaVuSans-73" transform="translate(1100.105469 0)"/>
      <use xlink:href="#DejaVuSans-29" transform="translate(1152.205078 0)"/>
     </g>
    </g>
   </g>
   <g id="FillBetweenPolyCollection_1"/>
   <g id="FillBetweenPolyCollection_2"/>
   <g id="FillBetweenPolyCollection_3"/>
   <g id="FillBetweenPolyCollection_4"/>
   <g id="FillBetweenPolyCollection_5"/>
   <g id="FillBetweenPolyCollection_6"/>
   <g id="line2d_13">
    <path d="M 92.067975 281.146268 
L 357.074426 281.146268 
L 369.805304 245.96795 
L 371.666895 281.146268 
L 373.468435 245.96795 
L 375.330025 281.146268 
L 378.993155 281.146268 
L 384.517876 258.95122 
L 388.060904 236.756173 
L 389.922495 258.95122 
L 393.585625 245.96795 
L 395.387164 258.95122 
L 397.248755 258.95122 
L 399.110346 229.610964 
L 400.911885 210.789632 
L 402.773476 188.594585 
L 404.575015 218.836893 
L 406.436606 207.415917 
L 408.298197 178.07566 
L 410.039685 223.772903 
L 411.901276 201.577856 
L 413.702815 172.237599 
L 415.564406 190.424837 
L 417.365945 199.014833 
L 419.227536 188.594585 
L 421.089127 196.641845 
L 422.890666 207.415917 
L 426.553797 207.415917 
L 428.415387 188.594585 
L 430.276978 207.415917 
L 431.958415 178.07566 
L 433.820006 185.220869 
L 435.621545 190.424837 
L 437.483136 192.366079 
L 439.284675 196.641845 
L 441.146266 207.415917 
L 443.007857 185.220869 
L 444.809396 175.611315 
L 446.670987 214.561126 
L 448.472526 204.364019 
L 450.334117 183.658575 
L 452.195708 188.594585 
L 453.877145 183.658575 
L 455.738735 183.658575 
L 457.540275 176.819786 
L 459.401866 175.611315 
L 461.203405 185.220869 
L 463.064996 190.424837 
L 464.926587 190.424837 
L 466.728126 185.220869 
L 468.589717 180.745596 
L 470.391256 196.641845 
L 472.252847 236.756173 
L 474.114438 218.836893 
L 475.795874 190.424837 
L 477.657465 204.364019 
L 479.459005 192.366079 
L 481.320595 186.863316 
L 483.122135 173.32315 
L 484.983726 201.577856 
L 486.845316 190.424837 
L 488.646856 163.836516 
L 490.508447 173.32315 
L 492.309986 179.382808 
L 494.171577 171.187647 
L 496.033167 180.745596 
L 497.774656 170.171031 
L 499.636246 176.819786 
L 501.437786 170.171031 
L 503.299377 190.424837 
L 505.100916 192.366079 
L 506.962507 183.658575 
L 508.824097 188.594585 
L 510.625637 186.863316 
L 512.487228 192.366079 
L 514.288767 218.836893 
L 516.150358 188.594585 
L 518.011949 190.424837 
L 519.693385 201.577856 
L 521.554976 192.366079 
L 523.356516 180.745596 
L 525.218106 196.641845 
L 527.019646 201.577856 
L 528.881237 204.364019 
L 530.742827 199.014833 
L 532.544367 190.424837 
L 534.405957 199.014833 
L 536.207497 194.432646 
L 538.069088 168.22979 
L 539.930678 201.577856 
L 541.612115 201.577856 
L 543.473706 223.772903 
L 545.275245 185.220869 
L 547.136836 194.432646 
L 548.938376 236.756173 
L 550.799966 192.366079 
L 552.661557 210.789632 
L 554.463097 199.014833 
L 556.324687 188.594585 
L 558.126227 210.789632 
L 559.987817 186.863316 
L 561.849408 182.168972 
L 563.530845 201.577856 
L 565.392436 180.745596 
L 567.193975 183.658575 
L 569.055566 201.577856 
L 570.857105 210.789632 
L 572.718696 192.366079 
L 574.580287 210.789632 
L 576.381826 180.745596 
L 578.243417 190.424837 
L 580.044956 199.014833 
L 581.906547 199.014833 
L 585.509626 194.432646 
L 587.371217 175.611315 
L 589.172756 178.07566 
L 591.034347 179.382808 
L 592.835886 190.424837 
L 594.697477 188.594585 
L 596.559068 180.745596 
L 598.360607 178.07566 
L 600.222198 186.863316 
L 602.023738 199.014833 
L 603.885328 188.594585 
L 605.746919 183.658575 
L 607.428356 175.611315 
L 609.289947 183.658575 
L 611.091486 186.863316 
L 612.953077 192.366079 
L 614.754616 199.014833 
L 616.616207 199.014833 
L 618.477798 188.594585 
L 620.279337 196.641845 
L 622.140928 183.658575 
L 623.942467 236.756173 
L 625.804058 201.577856 
L 627.665649 192.366079 
L 629.347086 178.07566 
L 631.208676 183.658575 
L 633.010216 188.594585 
L 634.871807 194.432646 
L 636.673346 214.561126 
L 638.534937 192.366079 
L 640.396528 190.424837 
L 642.198067 194.432646 
L 644.059658 204.364019 
L 645.861197 196.641845 
L 647.722788 210.789632 
L 649.584379 190.424837 
L 651.265816 188.594585 
L 653.127406 190.424837 
L 654.928946 186.863316 
L 656.790536 186.863316 
L 658.592076 178.07566 
L 660.453667 174.446798 
L 662.315257 192.366079 
L 664.116797 190.424837 
L 665.978388 190.424837 
L 667.779927 199.014833 
L 669.641518 188.594585 
L 671.503109 218.836893 
L 673.244597 192.366079 
L 675.106187 192.366079 
L 676.907727 185.220869 
L 678.769318 190.424837 
L 680.570857 188.594585 
L 682.432448 196.641845 
L 684.294039 182.168972 
L 686.095578 175.611315 
L 687.957169 175.611315 
L 689.758708 182.168972 
L 691.620299 166.399538 
L 693.48189 175.611315 
L 695.163326 186.863316 
L 697.024917 171.187647 
L 698.826457 166.399538 
L 700.688047 182.168972 
L 702.489587 182.168972 
L 704.351178 175.611315 
L 706.212768 174.446798 
L 708.014308 175.611315 
L 709.875898 173.32315 
L 711.677438 168.22979 
L 713.539029 162.235148 
L 715.400619 159.254329 
L 717.082056 155.880613 
L 718.943647 154.624739 
L 720.745186 152.251751 
L 722.606777 151.128103 
L 724.408317 146.034742 
L 726.269907 142.473221 
L 728.131498 146.034742 
L 729.933038 141.641469 
L 731.794628 140.432997 
L 733.596168 131.819755 
L 735.457758 140.830775 
L 737.319349 150.580727 
L 739.000786 135.666859 
L 740.862377 138.515018 
L 742.663916 143.327157 
L 744.525507 190.424837 
L 744.525507 190.424837 
" clip-path="url(#p0907b32a5b)" style="fill: none; stroke: #4c72b0; stroke-width: 1.5; stroke-linecap: round"/>
   </g>
   <g id="line2d_14">
    <path d="M 196.196954 281.146268 
L 236.431335 281.146268 
L 238.232874 245.96795 
L 240.094465 218.836893 
L 241.896004 236.756173 
L 243.757595 201.577856 
L 245.619186 258.95122 
L 247.420725 204.364019 
L 249.282316 223.772903 
L 251.083856 245.96795 
L 252.945446 207.415917 
L 254.807037 229.610964 
L 256.488474 207.415917 
L 258.350065 201.577856 
L 260.151604 196.641845 
L 262.013195 207.415917 
L 263.814734 210.789632 
L 265.676325 210.789632 
L 267.537916 229.610964 
L 269.339455 218.836893 
L 271.201046 194.432646 
L 273.002585 214.561126 
L 274.864176 185.220869 
L 276.725767 210.789632 
L 278.407204 214.561126 
L 282.070334 188.594585 
L 283.931925 218.836893 
L 285.733464 214.561126 
L 287.595055 210.789632 
L 289.456646 196.641845 
L 291.258185 196.641845 
L 293.119776 204.364019 
L 294.921315 204.364019 
L 296.782906 192.366079 
L 298.644497 201.577856 
L 300.325933 194.432646 
L 302.187524 223.772903 
L 303.989064 214.561126 
L 305.850654 196.641845 
L 307.652194 190.424837 
L 309.513785 207.415917 
L 311.375375 218.836893 
L 313.176915 194.432646 
L 315.038506 190.424837 
L 316.840045 201.577856 
L 318.701636 201.577856 
L 320.563226 199.014833 
L 322.304715 186.863316 
L 324.166305 223.772903 
L 325.967845 199.014833 
L 327.829435 192.366079 
L 329.630975 190.424837 
L 331.492566 204.364019 
L 333.354156 223.772903 
L 335.155696 192.366079 
L 337.017287 194.432646 
L 338.818826 218.836893 
L 340.680417 204.364019 
L 342.542008 214.561126 
L 344.223444 204.364019 
L 346.085035 236.756173 
L 347.886575 207.415917 
L 349.748165 229.610964 
L 351.549705 229.610964 
L 353.411295 223.772903 
L 355.272886 236.756173 
L 357.074426 223.772903 
L 358.936016 218.836893 
L 360.737556 223.772903 
L 362.599147 236.756173 
L 364.460737 245.96795 
L 366.142174 223.772903 
L 368.003765 214.561126 
L 369.805304 204.364019 
L 371.666895 223.772903 
L 373.468435 210.789632 
L 375.330025 223.772903 
L 377.191616 223.772903 
L 378.993155 214.561126 
L 380.854746 192.366079 
L 382.656286 204.364019 
L 384.517876 188.594585 
L 389.922495 188.594585 
L 391.724034 185.220869 
L 393.585625 185.220869 
L 395.387164 207.415917 
L 397.248755 199.014833 
L 399.110346 207.415917 
L 400.911885 188.594585 
L 402.773476 180.745596 
L 404.575015 210.789632 
L 406.436606 207.415917 
L 408.298197 204.364019 
L 410.039685 199.014833 
L 411.901276 204.364019 
L 413.702815 223.772903 
L 415.564406 199.014833 
L 417.365945 192.366079 
L 419.227536 210.789632 
L 421.089127 192.366079 
L 422.890666 188.594585 
L 424.752257 190.424837 
L 426.553797 201.577856 
L 428.415387 185.220869 
L 430.276978 204.364019 
L 431.958415 188.594585 
L 433.820006 194.432646 
L 435.621545 172.237599 
L 437.483136 194.432646 
L 439.284675 196.641845 
L 441.146266 179.382808 
L 443.007857 178.07566 
L 444.809396 194.432646 
L 446.670987 173.32315 
L 448.472526 194.432646 
L 450.334117 190.424837 
L 452.195708 180.745596 
L 453.877145 188.594585 
L 455.738735 192.366079 
L 457.540275 174.446798 
L 459.401866 192.366079 
L 461.203405 201.577856 
L 463.064996 175.611315 
L 464.926587 180.745596 
L 466.728126 175.611315 
L 468.589717 182.168972 
L 470.391256 185.220869 
L 472.252847 194.432646 
L 474.114438 207.415917 
L 475.795874 186.863316 
L 477.657465 186.863316 
L 479.459005 167.301589 
L 481.320595 183.658575 
L 483.122135 201.577856 
L 484.983726 185.220869 
L 486.845316 192.366079 
L 488.646856 182.168972 
L 490.508447 188.594585 
L 492.309986 207.415917 
L 494.171577 185.220869 
L 496.033167 192.366079 
L 497.774656 175.611315 
L 499.636246 192.366079 
L 501.437786 174.446798 
L 503.299377 188.594585 
L 505.100916 186.863316 
L 506.962507 175.611315 
L 508.824097 175.611315 
L 510.625637 179.382808 
L 512.487228 175.611315 
L 514.288767 182.168972 
L 516.150358 174.446798 
L 518.011949 199.014833 
L 519.693385 176.819786 
L 521.554976 174.446798 
L 523.356516 158.550549 
L 525.218106 158.550549 
L 527.019646 174.446798 
L 530.742827 172.237599 
L 532.544367 186.863316 
L 534.405957 174.446798 
L 536.207497 178.07566 
L 538.069088 164.668269 
L 539.930678 186.863316 
L 541.612115 167.301589 
L 543.473706 173.32315 
L 545.275245 164.668269 
L 547.136836 170.171031 
L 548.938376 180.745596 
L 550.799966 176.819786 
L 552.661557 180.745596 
L 554.463097 178.07566 
L 556.324687 172.237599 
L 558.126227 180.745596 
L 559.987817 185.220869 
L 561.849408 172.237599 
L 563.530845 176.819786 
L 565.392436 162.235148 
L 567.193975 163.025822 
L 569.055566 157.187761 
L 570.857105 169.185702 
L 572.718696 166.399538 
L 574.580287 174.446798 
L 576.381826 171.187647 
L 580.044956 165.522204 
L 581.906547 168.22979 
L 583.768138 158.550549 
L 585.509626 159.254329 
L 587.371217 166.399538 
L 589.172756 166.399538 
L 591.034347 152.251751 
L 592.835886 170.171031 
L 594.697477 166.399538 
L 596.559068 175.611315 
L 598.360607 163.025822 
L 600.222198 169.185702 
L 602.023738 157.187761 
L 603.885328 160.710065 
L 605.746919 156.527517 
L 607.428356 166.399538 
L 609.289947 159.254329 
L 611.091486 159.254329 
L 612.953077 158.550549 
L 614.754616 155.246519 
L 616.616207 148.992599 
L 618.477798 169.185702 
L 620.279337 163.836516 
L 622.140928 162.235148 
L 623.942467 155.880613 
L 625.804058 152.828716 
L 627.665649 157.861906 
L 629.347086 163.836516 
L 631.208676 154.014803 
L 633.010216 155.880613 
L 634.871807 164.668269 
L 636.673346 159.973925 
L 638.534937 163.025822 
L 640.396528 157.861906 
L 642.198067 142.054644 
L 644.059658 149.513272 
L 645.861197 146.509132 
L 647.722788 146.990655 
L 649.584379 165.522204 
L 651.265816 148.992599 
L 653.127406 154.014803 
L 654.928946 152.251751 
L 656.790536 146.034742 
L 658.592076 143.327157 
L 660.453667 150.042552 
L 662.315257 152.828716 
L 664.116797 142.473221 
L 665.978388 146.509132 
L 667.779927 144.204491 
L 669.641518 145.567279 
L 671.503109 148.480257 
L 673.244597 151.684998 
L 675.106187 146.509132 
L 676.907727 144.204491 
L 678.769318 143.327157 
L 680.570857 139.268481 
L 682.432448 147.975984 
L 684.294039 141.641469 
L 686.095578 144.65234 
L 687.957169 142.054644 
L 689.758708 132.123271 
L 691.620299 131.221221 
L 693.48189 125.284482 
L 695.163326 124.795607 
L 697.024917 140.040101 
L 698.826457 127.318225 
L 700.688047 125.039112 
L 702.489587 127.05683 
L 704.351178 135.328012 
L 706.212768 132.123271 
L 708.014308 103.963348 
L 709.875898 122.683588 
L 713.539029 104.861783 
L 715.400619 111.812337 
L 717.082056 111.490518 
L 718.943647 104.992214 
L 720.745186 92.139908 
L 722.606777 91.619235 
L 724.408317 90.436278 
L 726.269907 85.029713 
L 728.131498 80.284452 
L 729.933038 79.390793 
L 731.794628 73.552732 
L 733.596168 72.778781 
L 735.457758 65.310223 
L 737.319349 67.788197 
L 739.000786 60.700292 
L 740.862377 60.602119 
L 742.663916 56.932441 
L 744.525507 100.375193 
L 744.525507 100.375193 
" clip-path="url(#p0907b32a5b)" style="fill: none; stroke: #dd8452; stroke-width: 1.5; stroke-linecap: round"/>
   </g>
   <g id="line2d_15">
    <path d="M 207.186345 281.146268 
L 232.828256 245.96795 
L 234.569744 258.95122 
L 238.232874 236.756173 
L 240.094465 214.561126 
L 241.896004 223.772903 
L 243.757595 218.836893 
L 245.619186 218.836893 
L 247.420725 204.364019 
L 249.282316 173.32315 
L 251.083856 185.220869 
L 252.945446 173.32315 
L 254.807037 175.611315 
L 256.488474 173.32315 
L 258.350065 188.594585 
L 260.151604 183.658575 
L 262.013195 173.32315 
L 263.814734 172.237599 
L 265.676325 192.366079 
L 267.537916 179.382808 
L 269.339455 176.819786 
L 271.201046 192.366079 
L 273.002585 186.863316 
L 274.864176 179.382808 
L 276.725767 188.594585 
L 278.407204 180.745596 
L 280.268794 182.168972 
L 282.070334 172.237599 
L 283.931925 182.168972 
L 285.733464 186.863316 
L 287.595055 183.658575 
L 289.456646 190.424837 
L 291.258185 183.658575 
L 293.119776 172.237599 
L 294.921315 176.819786 
L 296.782906 176.819786 
L 298.644497 172.237599 
L 300.325933 192.366079 
L 302.187524 196.641845 
L 303.989064 190.424837 
L 305.850654 175.611315 
L 307.652194 204.364019 
L 309.513785 182.168972 
L 311.375375 186.863316 
L 313.176915 176.819786 
L 315.038506 176.819786 
L 316.840045 204.364019 
L 318.701636 188.594585 
L 320.563226 178.07566 
L 322.304715 194.432646 
L 324.166305 192.366079 
L 325.967845 188.594585 
L 327.829435 204.364019 
L 329.630975 192.366079 
L 331.492566 199.014833 
L 333.354156 190.424837 
L 335.155696 199.014833 
L 337.017287 192.366079 
L 338.818826 183.658575 
L 340.680417 183.658575 
L 342.542008 201.577856 
L 344.223444 192.366079 
L 346.085035 183.658575 
L 347.886575 190.424837 
L 349.748165 180.745596 
L 351.549705 176.819786 
L 353.411295 196.641845 
L 355.272886 185.220869 
L 357.074426 183.658575 
L 358.936016 175.611315 
L 360.737556 179.382808 
L 362.599147 174.446798 
L 364.460737 182.168972 
L 366.142174 176.819786 
L 368.003765 194.432646 
L 369.805304 176.819786 
L 373.468435 176.819786 
L 375.330025 186.863316 
L 377.191616 163.025822 
L 378.993155 175.611315 
L 380.854746 176.819786 
L 382.656286 174.446798 
L 384.517876 183.658575 
L 386.379467 172.237599 
L 388.060904 179.382808 
L 389.922495 182.168972 
L 391.724034 173.32315 
L 393.585625 178.07566 
L 395.387164 210.789632 
L 397.248755 171.187647 
L 399.110346 185.220869 
L 400.911885 186.863316 
L 402.773476 171.187647 
L 404.575015 194.432646 
L 406.436606 180.745596 
L 408.298197 190.424837 
L 410.039685 165.522204 
L 411.901276 186.863316 
L 413.702815 176.819786 
L 415.564406 188.594585 
L 417.365945 173.32315 
L 419.227536 190.424837 
L 422.890666 186.863316 
L 424.752257 188.594585 
L 426.553797 174.446798 
L 428.415387 180.745596 
L 430.276978 192.366079 
L 431.958415 178.07566 
L 433.820006 178.07566 
L 435.621545 201.577856 
L 437.483136 174.446798 
L 441.146266 172.237599 
L 443.007857 190.424837 
L 444.809396 182.168972 
L 446.670987 194.432646 
L 448.472526 175.611315 
L 450.334117 172.237599 
L 452.195708 188.594585 
L 453.877145 171.187647 
L 455.738735 180.745596 
L 457.540275 166.399538 
L 459.401866 180.745596 
L 461.203405 182.168972 
L 463.064996 180.745596 
L 464.926587 185.220869 
L 466.728126 174.446798 
L 468.589717 178.07566 
L 470.391256 170.171031 
L 472.252847 174.446798 
L 474.114438 190.424837 
L 475.795874 171.187647 
L 477.657465 163.836516 
L 479.459005 171.187647 
L 481.320595 178.07566 
L 483.122135 179.382808 
L 484.983726 157.861906 
L 486.845316 166.399538 
L 488.646856 157.861906 
L 490.508447 165.522204 
L 492.309986 169.185702 
L 494.171577 151.684998 
L 496.033167 173.32315 
L 497.774656 158.550549 
L 499.636246 160.710065 
L 501.437786 151.684998 
L 503.299377 162.235148 
L 505.100916 151.684998 
L 506.962507 167.301589 
L 508.824097 161.463528 
L 510.625637 154.014803 
L 512.487228 155.880613 
L 514.288767 163.025822 
L 516.150358 167.301589 
L 518.011949 154.014803 
L 519.693385 164.668269 
L 521.554976 160.710065 
L 523.356516 147.975984 
L 525.218106 151.128103 
L 527.019646 148.480257 
L 528.881237 151.128103 
L 530.742827 149.513272 
L 532.544367 138.515018 
L 534.405957 146.990655 
L 536.207497 151.128103 
L 538.069088 141.641469 
L 539.930678 168.22979 
L 541.612115 149.513272 
L 543.473706 157.861906 
L 545.275245 152.828716 
L 547.136836 156.527517 
L 548.938376 147.975984 
L 550.799966 146.990655 
L 552.661557 141.641469 
L 554.463097 143.327157 
L 556.324687 144.204491 
L 558.126227 143.327157 
L 559.987817 144.65234 
L 561.849408 141.641469 
L 563.530845 143.327157 
L 565.392436 138.144832 
L 567.193975 129.489951 
L 569.055566 133.685566 
L 570.857105 137.417058 
L 572.718696 132.739073 
L 574.580287 135.666859 
L 576.381826 138.889533 
L 578.243417 134.33247 
L 580.044956 139.268481 
L 581.906547 136.355502 
L 583.768138 138.515018 
L 585.509626 138.889533 
L 587.371217 138.889533 
L 589.172756 125.039112 
L 591.034347 131.519089 
L 592.835886 144.65234 
L 594.697477 136.355502 
L 596.559068 145.567279 
L 598.360607 135.328012 
L 600.222198 132.123271 
L 602.023738 131.221221 
L 603.885328 131.819755 
L 605.746919 133.366949 
L 607.428356 128.933056 
L 609.289947 137.417058 
L 611.091486 122.911494 
L 612.953077 130.926097 
L 614.754616 137.778878 
L 616.616207 134.66089 
L 618.477798 134.33247 
L 620.279337 134.33247 
L 622.140928 137.417058 
L 623.942467 132.739073 
L 625.804058 135.328012 
L 627.665649 137.059282 
L 629.347086 133.366949 
L 631.208676 135.328012 
L 633.010216 122.232585 
L 634.871807 128.115462 
L 636.673346 136.355502 
L 638.534937 131.221221 
L 640.396528 127.847505 
L 642.198067 136.009329 
L 644.059658 133.051472 
L 645.861197 133.685566 
L 647.722788 138.144832 
L 651.265816 125.284482 
L 653.127406 137.059282 
L 654.928946 120.702295 
L 656.790536 136.009329 
L 658.592076 137.059282 
L 660.453667 134.992714 
L 662.315257 129.772073 
L 664.116797 125.284482 
L 667.779927 120.916481 
L 669.641518 127.05683 
L 671.503109 130.056704 
L 673.244597 117.073433 
L 675.106187 128.658198 
L 676.907727 129.489951 
L 678.769318 124.076011 
L 680.570857 127.581771 
L 682.432448 128.115462 
L 684.294039 121.787846 
L 686.095578 123.141034 
L 687.957169 123.60511 
L 689.758708 124.795607 
L 691.620299 121.3492 
L 693.48189 120.702295 
L 695.163326 114.160455 
L 697.024917 118.040899 
L 698.826457 116.883399 
L 700.688047 122.232585 
L 702.489587 123.372232 
L 706.212768 111.330814 
L 708.014308 105.386724 
L 709.875898 103.58589 
L 711.677438 101.644648 
L 713.539029 94.499439 
L 715.400619 98.294485 
L 717.082056 91.191716 
L 718.943647 91.965407 
L 720.745186 86.905334 
L 722.606777 87.203897 
L 724.408317 89.135767 
L 726.269907 77.674989 
L 729.933038 67.952196 
L 731.794628 71.193736 
L 733.596168 68.574782 
L 735.457758 62.869718 
L 737.319349 61.162454 
L 739.000786 54.090481 
L 740.862377 58.977649 
L 742.663916 57.372494 
L 744.525507 106.463151 
L 746.327046 281.146268 
L 746.327046 281.146268 
" clip-path="url(#p0907b32a5b)" style="fill: none; stroke: #55a868; stroke-width: 1.5; stroke-linecap: round"/>
   </g>
   <g id="line2d_16">
    <path d="M 225.441944 281.146268 
L 227.303535 192.366079 
L 229.105074 281.146268 
L 232.828256 236.756173 
L 236.431335 258.95122 
L 238.232874 281.146268 
L 241.896004 236.756173 
L 243.757595 218.836893 
L 245.619186 281.146268 
L 247.420725 229.610964 
L 249.282316 258.95122 
L 251.083856 236.756173 
L 252.945446 236.756173 
L 254.807037 218.836893 
L 256.488474 229.610964 
L 258.350065 223.772903 
L 260.151604 229.610964 
L 262.013195 210.789632 
L 263.814734 229.610964 
L 265.676325 223.772903 
L 267.537916 236.756173 
L 269.339455 258.95122 
L 271.201046 223.772903 
L 273.002585 245.96795 
L 274.864176 214.561126 
L 276.725767 223.772903 
L 278.407204 210.789632 
L 280.268794 218.836893 
L 282.070334 196.641845 
L 283.931925 207.415917 
L 285.733464 229.610964 
L 287.595055 218.836893 
L 289.456646 258.95122 
L 291.258185 258.95122 
L 293.119776 204.364019 
L 294.921315 229.610964 
L 296.782906 218.836893 
L 298.644497 281.146268 
L 300.325933 218.836893 
L 302.187524 218.836893 
L 303.989064 210.789632 
L 307.652194 236.756173 
L 309.513785 218.836893 
L 311.375375 214.561126 
L 313.176915 207.415917 
L 315.038506 214.561126 
L 316.840045 281.146268 
L 318.701636 223.772903 
L 320.563226 229.610964 
L 322.304715 229.610964 
L 324.166305 218.836893 
L 325.967845 214.561126 
L 327.829435 214.561126 
L 329.630975 210.789632 
L 331.492566 223.772903 
L 333.354156 214.561126 
L 335.155696 190.424837 
L 337.017287 201.577856 
L 338.818826 218.836893 
L 340.680417 204.364019 
L 342.542008 214.561126 
L 344.223444 207.415917 
L 346.085035 196.641845 
L 347.886575 199.014833 
L 349.748165 185.220869 
L 351.549705 207.415917 
L 353.411295 204.364019 
L 355.272886 196.641845 
L 357.074426 207.415917 
L 358.936016 199.014833 
L 360.737556 218.836893 
L 362.599147 218.836893 
L 364.460737 201.577856 
L 366.142174 194.432646 
L 368.003765 214.561126 
L 369.805304 207.415917 
L 371.666895 214.561126 
L 373.468435 179.382808 
L 375.330025 194.432646 
L 377.191616 207.415917 
L 378.993155 204.364019 
L 380.854746 190.424837 
L 382.656286 194.432646 
L 384.517876 179.382808 
L 386.379467 194.432646 
L 388.060904 188.594585 
L 389.922495 190.424837 
L 391.724034 188.594585 
L 393.585625 174.446798 
L 395.387164 182.168972 
L 399.110346 185.220869 
L 400.911885 188.594585 
L 402.773476 179.382808 
L 404.575015 183.658575 
L 406.436606 180.745596 
L 408.298197 173.32315 
L 410.039685 170.171031 
L 411.901276 172.237599 
L 413.702815 160.710065 
L 415.564406 160.710065 
L 417.365945 161.463528 
L 419.227536 161.463528 
L 421.089127 163.025822 
L 422.890666 157.187761 
L 424.752257 151.684998 
L 426.553797 166.399538 
L 428.415387 154.014803 
L 430.276978 154.624739 
L 431.958415 152.828716 
L 433.820006 156.527517 
L 435.621545 156.527517 
L 437.483136 148.992599 
L 439.284675 154.624739 
L 441.146266 155.880613 
L 443.007857 144.65234 
L 444.809396 153.416268 
L 446.670987 145.567279 
L 448.472526 151.684998 
L 450.334117 139.651966 
L 452.195708 146.034742 
L 453.877145 142.054644 
L 455.738735 140.830775 
L 457.540275 140.040101 
L 459.401866 138.889533 
L 461.203405 144.65234 
L 463.064996 145.567279 
L 464.926587 140.830775 
L 466.728126 138.144832 
L 468.589717 139.651966 
L 470.391256 141.641469 
L 472.252847 137.778878 
L 474.114438 146.990655 
L 475.795874 133.685566 
L 477.657465 145.106542 
L 479.459005 130.926097 
L 483.122135 141.641469 
L 484.983726 143.327157 
L 486.845316 140.040101 
L 488.646856 134.992714 
L 490.508447 137.417058 
L 492.309986 146.990655 
L 494.171577 134.007384 
L 496.033167 137.417058 
L 497.774656 138.515018 
L 499.636246 140.040101 
L 501.437786 135.666859 
L 503.299377 138.515018 
L 505.100916 134.992714 
L 506.962507 138.515018 
L 508.824097 139.268481 
L 510.625637 139.268481 
L 512.487228 138.889533 
L 514.288767 142.897343 
L 516.150358 137.059282 
L 518.011949 148.480257 
L 519.693385 137.417058 
L 521.554976 142.054644 
L 523.356516 129.210293 
L 525.218106 136.355502 
L 527.019646 133.366949 
L 528.881237 132.123271 
L 530.742827 133.366949 
L 532.544367 132.739073 
L 534.405957 139.651966 
L 536.207497 138.889533 
L 538.069088 135.328012 
L 539.930678 139.651966 
L 541.612115 136.705458 
L 543.473706 137.778878 
L 545.275245 132.739073 
L 547.136836 132.429692 
L 548.938376 141.233556 
L 550.799966 134.007384 
L 552.661557 129.489951 
L 554.463097 133.051472 
L 556.324687 137.059282 
L 558.126227 132.739073 
L 559.987817 128.658198 
L 561.849408 133.051472 
L 563.530845 127.05683 
L 565.392436 134.992714 
L 567.193975 128.38568 
L 569.055566 131.819755 
L 570.857105 128.38568 
L 572.718696 128.115462 
L 574.580287 126.032081 
L 576.381826 121.13211 
L 578.243417 123.839695 
L 580.044956 128.658198 
L 581.906547 125.284482 
L 583.768138 129.489951 
L 585.509626 127.318225 
L 587.371217 122.009444 
L 589.172756 122.457293 
L 591.034347 120.702295 
L 592.835886 134.66089 
L 594.697477 131.221221 
L 596.559068 131.519089 
L 598.360607 127.05683 
L 600.222198 128.38568 
L 602.023738 138.144832 
L 603.885328 125.531748 
L 605.746919 127.581771 
L 607.428356 123.839695 
L 609.289947 130.633669 
L 611.091486 119.241816 
L 612.953077 120.068202 
L 614.754616 131.819755 
L 616.616207 123.141034 
L 618.477798 127.581771 
L 620.279337 124.795607 
L 622.140928 127.847505 
L 623.942467 133.685566 
L 625.804058 119.446421 
L 627.665649 131.819755 
L 629.347086 124.795607 
L 631.208676 127.847505 
L 633.010216 125.039112 
L 634.871807 116.694486 
L 636.673346 130.926097 
L 640.396528 122.232585 
L 642.198067 122.683588 
L 644.059658 122.232585 
L 645.861197 131.819755 
L 647.722788 125.780937 
L 649.584379 136.009329 
L 651.265816 129.489951 
L 653.127406 123.839695 
L 654.928946 122.457293 
L 656.790536 120.278174 
L 658.592076 130.343887 
L 660.453667 122.457293 
L 662.315257 125.531748 
L 664.116797 122.232585 
L 665.978388 124.076011 
L 667.779927 123.60511 
L 669.641518 123.60511 
L 671.503109 124.553941 
L 673.244597 128.115462 
L 675.106187 132.429692 
L 676.907727 126.28521 
L 678.769318 129.772073 
L 680.570857 131.519089 
L 682.432448 130.056704 
L 684.294039 123.839695 
L 686.095578 127.581771 
L 687.957169 130.633669 
L 689.758708 129.772073 
L 691.620299 126.797552 
L 693.48189 130.633669 
L 695.163326 130.056704 
L 697.024917 128.658198 
L 698.826457 126.032081 
L 700.688047 132.429692 
L 702.489587 140.830775 
L 704.351178 125.780937 
L 706.212768 120.702295 
L 708.014308 123.839695 
L 709.875898 124.076011 
L 711.677438 123.60511 
L 713.539029 114.864234 
L 715.400619 121.567772 
L 717.082056 109.928224 
L 718.943647 115.40241 
L 720.745186 117.264602 
L 722.606777 105.519315 
L 724.408317 117.073433 
L 726.269907 108.148839 
L 728.131498 110.544025 
L 729.933038 112.137423 
L 731.794628 109.026173 
L 733.596168 112.631325 
L 735.457758 106.326602 
L 737.319349 94.124923 
L 739.000786 70.786975 
L 740.862377 49.181143 
L 742.663916 41.04506 
L 744.525507 94.783228 
L 744.525507 94.783228 
" clip-path="url(#p0907b32a5b)" style="fill: none; stroke: #c44e52; stroke-width: 1.5; stroke-linecap: round"/>
   </g>
   <g id="line2d_17">
    <path d="M 230.966665 281.146268 
L 234.569744 245.96795 
L 236.431335 245.96795 
L 240.094465 236.756173 
L 243.757595 281.146268 
L 245.619186 281.146268 
L 247.420725 174.446798 
L 249.282316 167.301589 
L 251.083856 164.668269 
L 252.945446 158.550549 
L 254.807037 168.22979 
L 256.488474 169.185702 
L 258.350065 163.836516 
L 260.151604 161.463528 
L 262.013195 171.187647 
L 263.814734 183.658575 
L 265.676325 165.522204 
L 267.537916 185.220869 
L 269.339455 164.668269 
L 271.201046 166.399538 
L 273.002585 169.185702 
L 274.864176 156.527517 
L 276.725767 157.861906 
L 278.407204 171.187647 
L 280.268794 173.32315 
L 282.070334 165.522204 
L 283.931925 161.463528 
L 285.733464 170.171031 
L 287.595055 176.819786 
L 289.456646 158.550549 
L 291.258185 171.187647 
L 293.119776 166.399538 
L 294.921315 186.863316 
L 296.782906 159.973925 
L 298.644497 164.668269 
L 300.325933 164.668269 
L 302.187524 172.237599 
L 303.989064 175.611315 
L 305.850654 166.399538 
L 307.652194 156.527517 
L 309.513785 158.550549 
L 311.375375 154.624739 
L 313.176915 172.237599 
L 315.038506 152.251751 
L 316.840045 169.185702 
L 318.701636 158.550549 
L 320.563226 156.527517 
L 322.304715 178.07566 
L 324.166305 174.446798 
L 325.967845 178.07566 
L 327.829435 180.745596 
L 329.630975 174.446798 
L 331.492566 172.237599 
L 333.354156 172.237599 
L 335.155696 178.07566 
L 337.017287 182.168972 
L 338.818826 171.187647 
L 340.680417 214.561126 
L 342.542008 179.382808 
L 344.223444 175.611315 
L 346.085035 179.382808 
L 347.886575 171.187647 
L 349.748165 175.611315 
L 351.549705 190.424837 
L 353.411295 199.014833 
L 355.272886 170.171031 
L 357.074426 176.819786 
L 358.936016 175.611315 
L 360.737556 178.07566 
L 362.599147 172.237599 
L 364.460737 175.611315 
L 366.142174 165.522204 
L 368.003765 190.424837 
L 369.805304 185.220869 
L 371.666895 176.819786 
L 373.468435 192.366079 
L 375.330025 167.301589 
L 377.191616 162.235148 
L 378.993155 167.301589 
L 380.854746 174.446798 
L 382.656286 170.171031 
L 384.517876 163.025822 
L 386.379467 175.611315 
L 388.060904 171.187647 
L 389.922495 175.611315 
L 391.724034 165.522204 
L 393.585625 159.973925 
L 395.387164 167.301589 
L 397.248755 167.301589 
L 399.110346 160.710065 
L 400.911885 156.527517 
L 402.773476 159.973925 
L 404.575015 175.611315 
L 406.436606 178.07566 
L 408.298197 175.611315 
L 410.039685 165.522204 
L 411.901276 169.185702 
L 413.702815 159.254329 
L 415.564406 170.171031 
L 417.365945 168.22979 
L 419.227536 176.819786 
L 421.089127 182.168972 
L 422.890666 150.042552 
L 424.752257 156.527517 
L 426.553797 156.527517 
L 428.415387 158.550549 
L 430.276978 176.819786 
L 431.958415 161.463528 
L 433.820006 167.301589 
L 435.621545 156.527517 
L 437.483136 164.668269 
L 439.284675 159.254329 
L 441.146266 152.828716 
L 443.007857 158.550549 
L 444.809396 151.684998 
L 446.670987 146.990655 
L 448.472526 173.32315 
L 450.334117 147.47953 
L 452.195708 161.463528 
L 453.877145 154.624739 
L 455.738735 151.128103 
L 457.540275 156.527517 
L 459.401866 143.762819 
L 461.203405 153.416268 
L 463.064996 167.301589 
L 464.926587 143.327157 
L 466.728126 160.710065 
L 468.589717 143.762819 
L 470.391256 146.034742 
L 472.252847 162.235148 
L 474.114438 149.513272 
L 475.795874 154.014803 
L 477.657465 148.480257 
L 479.459005 142.473221 
L 481.320595 139.268481 
L 483.122135 146.509132 
L 484.983726 147.47953 
L 486.845316 138.144832 
L 488.646856 138.889533 
L 490.508447 136.355502 
L 492.309986 132.739073 
L 494.171577 147.47953 
L 496.033167 143.327157 
L 497.774656 137.778878 
L 499.636246 141.641469 
L 501.437786 140.830775 
L 503.299377 142.054644 
L 505.100916 133.051472 
L 506.962507 144.204491 
L 508.824097 138.515018 
L 510.625637 136.355502 
L 514.288767 142.897343 
L 516.150358 137.778878 
L 518.011949 148.992599 
L 519.693385 144.65234 
L 521.554976 147.975984 
L 523.356516 140.432997 
L 525.218106 138.144832 
L 527.019646 143.762819 
L 528.881237 139.651966 
L 530.742827 145.567279 
L 532.544367 133.366949 
L 534.405957 140.432997 
L 536.207497 144.204491 
L 538.069088 141.641469 
L 539.930678 146.509132 
L 541.612115 138.144832 
L 543.473706 144.65234 
L 545.275245 134.33247 
L 548.938376 153.416268 
L 550.799966 154.624739 
L 552.661557 145.567279 
L 554.463097 157.187761 
L 556.324687 140.432997 
L 558.126227 141.233556 
L 559.987817 150.042552 
L 561.849408 145.567279 
L 563.530845 136.355502 
L 565.392436 139.268481 
L 567.193975 138.889533 
L 569.055566 146.509132 
L 570.857105 151.684998 
L 572.718696 133.051472 
L 574.580287 139.651966 
L 576.381826 135.666859 
L 578.243417 140.432997 
L 580.044956 137.778878 
L 581.906547 137.778878 
L 583.768138 136.705458 
L 585.509626 135.328012 
L 587.371217 141.233556 
L 589.172756 135.666859 
L 591.034347 131.519089 
L 592.835886 130.926097 
L 594.697477 146.990655 
L 596.559068 134.992714 
L 598.360607 134.007384 
L 600.222198 136.355502 
L 602.023738 135.328012 
L 603.885328 142.473221 
L 605.746919 144.65234 
L 607.428356 132.123271 
L 609.289947 140.432997 
L 611.091486 128.115462 
L 612.953077 136.705458 
L 614.754616 145.567279 
L 616.616207 131.221221 
L 618.477798 138.889533 
L 620.279337 133.366949 
L 622.140928 132.739073 
L 623.942467 140.432997 
L 625.804058 138.144832 
L 627.665649 142.897343 
L 629.347086 134.007384 
L 631.208676 138.515018 
L 633.010216 137.417058 
L 634.871807 142.473221 
L 636.673346 145.567279 
L 638.534937 139.651966 
L 640.396528 134.66089 
L 642.198067 137.778878 
L 644.059658 138.515018 
L 645.861197 138.515018 
L 647.722788 134.007384 
L 649.584379 139.268481 
L 651.265816 136.705458 
L 653.127406 134.992714 
L 654.928946 134.66089 
L 656.790536 144.65234 
L 658.592076 137.778878 
L 660.453667 137.059282 
L 662.315257 137.059282 
L 664.116797 133.366949 
L 665.978388 123.839695 
L 667.779927 131.221221 
L 669.641518 141.233556 
L 671.503109 142.054644 
L 673.244597 140.432997 
L 675.106187 144.204491 
L 676.907727 134.33247 
L 678.769318 126.28521 
L 680.570857 122.911494 
L 682.432448 121.3492 
L 684.294039 126.540356 
L 686.095578 125.284482 
L 687.957169 129.772073 
L 689.758708 129.489951 
L 691.620299 128.933056 
L 693.48189 119.652343 
L 695.163326 124.314084 
L 697.024917 128.933056 
L 698.826457 127.847505 
L 700.688047 124.314084 
L 702.489587 126.797552 
L 704.351178 122.683588 
L 706.212768 117.264602 
L 708.014308 116.134343 
L 709.875898 119.241816 
L 711.677438 118.836485 
L 713.539029 115.583831 
L 715.400619 109.324042 
L 717.082056 114.686834 
L 718.943647 115.766285 
L 720.745186 103.089435 
L 722.606777 105.920415 
L 724.408317 106.600285 
L 726.269907 96.141885 
L 728.131498 100.831011 
L 729.933038 96.540902 
L 733.596168 92.491787 
L 735.457758 84.612046 
L 737.319349 89.455976 
L 739.000786 82.536834 
L 740.862377 83.52419 
L 742.663916 83.125587 
L 744.525507 128.658198 
L 744.525507 128.658198 
" clip-path="url(#p0907b32a5b)" style="fill: none; stroke: #8172b3; stroke-width: 1.5; stroke-linecap: round"/>
   </g>
   <g id="line2d_18">
    <path d="M 234.569744 281.146268 
L 247.420725 236.756173 
L 249.282316 210.789632 
L 251.083856 236.756173 
L 252.945446 245.96795 
L 254.807037 236.756173 
L 256.488474 245.96795 
L 258.350065 214.561126 
L 260.151604 214.561126 
L 262.013195 245.96795 
L 263.814734 258.95122 
L 265.676325 281.146268 
L 267.537916 245.96795 
L 269.339455 223.772903 
L 271.201046 207.415917 
L 274.864176 190.424837 
L 276.725767 188.594585 
L 278.407204 190.424837 
L 280.268794 182.168972 
L 282.070334 210.789632 
L 283.931925 201.577856 
L 285.733464 210.789632 
L 287.595055 204.364019 
L 291.258185 185.220869 
L 293.119776 192.366079 
L 294.921315 194.432646 
L 296.782906 182.168972 
L 298.644497 190.424837 
L 300.325933 179.382808 
L 302.187524 204.364019 
L 303.989064 182.168972 
L 305.850654 186.863316 
L 307.652194 214.561126 
L 309.513785 199.014833 
L 313.176915 178.07566 
L 315.038506 183.658575 
L 316.840045 192.366079 
L 318.701636 168.22979 
L 320.563226 192.366079 
L 322.304715 194.432646 
L 324.166305 194.432646 
L 325.967845 204.364019 
L 327.829435 185.220869 
L 329.630975 192.366079 
L 331.492566 178.07566 
L 333.354156 167.301589 
L 335.155696 185.220869 
L 337.017287 178.07566 
L 340.680417 178.07566 
L 342.542008 180.745596 
L 344.223444 182.168972 
L 346.085035 188.594585 
L 347.886575 186.863316 
L 349.748165 204.364019 
L 351.549705 196.641845 
L 353.411295 182.168972 
L 355.272886 183.658575 
L 357.074426 178.07566 
L 358.936016 190.424837 
L 360.737556 183.658575 
L 362.599147 185.220869 
L 364.460737 171.187647 
L 366.142174 173.32315 
L 368.003765 196.641845 
L 369.805304 172.237599 
L 371.666895 183.658575 
L 373.468435 192.366079 
L 375.330025 175.611315 
L 377.191616 174.446798 
L 378.993155 171.187647 
L 380.854746 157.187761 
L 382.656286 179.382808 
L 384.517876 169.185702 
L 386.379467 171.187647 
L 388.060904 157.861906 
L 389.922495 158.550549 
L 391.724034 165.522204 
L 393.585625 157.861906 
L 395.387164 166.399538 
L 397.248755 168.22979 
L 399.110346 155.246519 
L 400.911885 152.828716 
L 402.773476 152.251751 
L 404.575015 172.237599 
L 406.436606 162.235148 
L 408.298197 169.185702 
L 410.039685 168.22979 
L 411.901276 168.22979 
L 413.702815 163.836516 
L 415.564406 167.301589 
L 417.365945 170.171031 
L 419.227536 170.171031 
L 421.089127 159.973925 
L 422.890666 161.463528 
L 424.752257 165.522204 
L 426.553797 157.861906 
L 430.276978 162.235148 
L 431.958415 157.861906 
L 433.820006 163.025822 
L 435.621545 163.025822 
L 437.483136 163.836516 
L 439.284675 180.745596 
L 441.146266 158.550549 
L 443.007857 168.22979 
L 444.809396 156.527517 
L 446.670987 163.836516 
L 448.472526 161.463528 
L 450.334117 155.880613 
L 452.195708 154.014803 
L 453.877145 155.246519 
L 455.738735 154.624739 
L 457.540275 144.204491 
L 459.401866 159.973925 
L 461.203405 148.992599 
L 463.064996 150.580727 
L 464.926587 151.684998 
L 466.728126 141.233556 
L 468.589717 145.567279 
L 470.391256 146.509132 
L 472.252847 145.106542 
L 474.114438 152.251751 
L 475.795874 144.204491 
L 477.657465 146.509132 
L 479.459005 146.990655 
L 481.320595 150.042552 
L 483.122135 163.025822 
L 484.983726 135.328012 
L 486.845316 139.651966 
L 488.646856 137.778878 
L 490.508447 146.509132 
L 492.309986 152.828716 
L 494.171577 141.233556 
L 496.033167 138.889533 
L 497.774656 142.054644 
L 499.636246 142.473221 
L 501.437786 144.204491 
L 503.299377 148.992599 
L 505.100916 149.513272 
L 506.962507 142.473221 
L 508.824097 131.819755 
L 510.625637 141.233556 
L 512.487228 148.480257 
L 514.288767 145.106542 
L 516.150358 142.054644 
L 518.011949 132.739073 
L 519.693385 140.040101 
L 521.554976 143.327157 
L 523.356516 147.47953 
L 525.218106 135.666859 
L 527.019646 139.268481 
L 528.881237 137.059282 
L 530.742827 133.366949 
L 532.544367 131.221221 
L 534.405957 142.897343 
L 536.207497 137.059282 
L 538.069088 128.38568 
L 539.930678 146.509132 
L 541.612115 136.355502 
L 543.473706 136.009329 
L 545.275245 146.990655 
L 547.136836 149.513272 
L 548.938376 146.509132 
L 550.799966 145.106542 
L 552.661557 140.830775 
L 554.463097 138.515018 
L 556.324687 143.762819 
L 558.126227 142.897343 
L 559.987817 140.432997 
L 561.849408 141.233556 
L 563.530845 136.705458 
L 565.392436 134.007384 
L 567.193975 146.034742 
L 569.055566 142.054644 
L 570.857105 147.47953 
L 572.718696 141.641469 
L 574.580287 128.933056 
L 576.381826 138.515018 
L 578.243417 133.366949 
L 580.044956 145.106542 
L 581.906547 140.040101 
L 583.768138 133.366949 
L 585.509626 146.509132 
L 587.371217 137.059282 
L 589.172756 130.926097 
L 591.034347 139.268481 
L 592.835886 146.034742 
L 594.697477 138.515018 
L 596.559068 129.772073 
L 598.360607 138.889533 
L 600.222198 141.233556 
L 602.023738 140.830775 
L 603.885328 131.819755 
L 605.746919 141.233556 
L 607.428356 131.819755 
L 609.289947 136.355502 
L 611.091486 133.051472 
L 612.953077 138.515018 
L 614.754616 137.778878 
L 616.616207 130.343887 
L 618.477798 126.797552 
L 620.279337 131.221221 
L 622.140928 131.519089 
L 623.942467 127.05683 
L 625.804058 125.039112 
L 627.665649 135.328012 
L 629.347086 132.739073 
L 631.208676 139.651966 
L 633.010216 126.28521 
L 634.871807 137.059282 
L 636.673346 130.056704 
L 638.534937 128.933056 
L 640.396528 126.797552 
L 642.198067 130.056704 
L 644.059658 126.540356 
L 645.861197 135.328012 
L 647.722788 134.992714 
L 649.584379 128.38568 
L 651.265816 128.933056 
L 653.127406 128.115462 
L 654.928946 121.567772 
L 656.790536 124.314084 
L 658.592076 130.343887 
L 660.453667 126.540356 
L 662.315257 114.686834 
L 664.116797 117.845053 
L 665.978388 120.278174 
L 667.779927 121.787846 
L 669.641518 114.864234 
L 671.503109 118.23795 
L 673.244597 122.009444 
L 675.106187 122.009444 
L 676.907727 117.264602 
L 678.769318 118.040899 
L 680.570857 113.814282 
L 682.432448 118.436221 
L 684.294039 116.134343 
L 686.095578 119.038509 
L 687.957169 119.859597 
L 689.758708 119.652343 
L 691.620299 115.583831 
L 693.48189 121.3492 
L 695.163326 120.916481 
L 697.024917 119.241816 
L 698.826457 116.883399 
L 700.688047 117.073433 
L 702.489587 114.334955 
L 704.351178 117.456919 
L 706.212768 111.812337 
L 708.014308 100.149695 
L 709.875898 112.465843 
L 711.677438 108.148839 
L 713.539029 104.090163 
L 715.400619 107.015245 
L 717.082056 99.372725 
L 718.943647 102.844065 
L 720.745186 94.878386 
L 722.606777 96.944954 
L 724.408317 100.602291 
L 726.269907 91.022294 
L 728.131498 86.75709 
L 729.933038 86.243574 
L 731.794628 90.76983 
L 735.457758 80.224092 
L 737.319349 82.022435 
L 739.000786 81.079658 
L 740.862377 83.725367 
L 742.663916 83.927817 
L 744.525507 129.210293 
L 744.525507 129.210293 
" clip-path="url(#p0907b32a5b)" style="fill: none; stroke: #937860; stroke-width: 1.5; stroke-linecap: round"/>
   </g>
   <g id="line2d_19"/>
   <g id="line2d_20"/>
   <g id="line2d_21"/>
   <g id="line2d_22"/>
   <g id="line2d_23"/>
   <g id="line2d_24"/>
   <g id="patch_3">
    <path d="M 59.355021 293.151328 
L 59.355021 29.04 
" style="fill: none; stroke: #ffffff; stroke-width: 1.25; stroke-linejoin: miter; stroke-linecap: square"/>
   </g>
   <g id="patch_4">
    <path d="M 779.04 293.151328 
L 779.04 29.04 
" style="fill: none; stroke: #ffffff; stroke-width: 1.25; stroke-linejoin: miter; stroke-linecap: square"/>
   </g>
   <g id="patch_5">
    <path d="M 59.355021 293.151328 
L 779.04 293.151328 
" style="fill: none; stroke: #ffffff; stroke-width: 1.25; stroke-linejoin: miter; stroke-linecap: square"/>
   </g>
   <g id="patch_6">
    <path d="M 59.355021 29.04 
L 779.04 29.04 
" style="fill: none; stroke: #ffffff; stroke-width: 1.25; stroke-linejoin: miter; stroke-linecap: square"/>
   </g>
   <g id="text_15">
    <!-- Monthly Article Count (Log Scale) - Top 5 Categories + Other -->
    <g style="fill: #262626" transform="translate(236.982198 23.04) scale(0.12 -0.12)">
     <defs>
      <path id="DejaVuSans-4d" d="M 628 4666 
L 1569 4666 
L 2759 1491 
L 3956 4666 
L 4897 4666 
L 4897 0 
L 4281 0 
L 4281 4097 
L 3078 897 
L 2444 897 
L 1241 4097 
L 1241 0 
L 628 0 
L 628 4666 
z
" transform="scale(0.015625)"/>
      <path id="DejaVuSans-6e" d="M 3513 2113 
L 3513 0 
L 2938 0 
L 2938 2094 
Q 2938 2591 2744 2837 
Q 2550 3084 2163 3084 
Q 1697 3084 1428 2787 
Q 1159 2491 1159 1978 
L 1159 0 
L 581 0 
L 581 3500 
L 1159 3500 
L 1159 2956 
Q 1366 3272 1645 3428 
Q 1925 3584 2291 3584 
Q 2894 3584 3203 3211 
Q 3513 2838 3513 2113 
z
" transform="scale(0.015625)"/>
      <path id="DejaVuSans-68" d="M 3513 2113 
L 3513 0 
L 2938 0 
L 2938 2094 
Q 2938 2591 2744 2837 
Q 2550 3084 2163 3084 
Q 1697 3084 1428 2787 
Q 1159 2491 1159 1978 
L 1159 0 
L 581 0 
L 581 4863 
L 1159 4863 
L 1159 2956 
Q 1366 3272 1645 3428 
Q 1925 3584 2291 3584 
Q 2894 3584 3203 3211 
Q 3513 2838 3513 2113 
z
" transform="scale(0.015625)"/>
      <path id="DejaVuSans-79" d="M 2059 -325 
Q 1816 -950 1584 -1140 
Q 1353 -1331 966 -1331 
L 506 -1331 
L 506 -850 
L 844 -850 
Q 1081 -850 1212 -737 
Q 1344 -625 1503 -206 
L 1606 56 
L 191 3500 
L 800 3500 
L 1894 763 
L 2988 3500 
L 3597 3500 
L 2059 -325 
z
" transform="scale(0.015625)"/>
      <path id="DejaVuSans-43" d="M 4122 4306 
L 4122 3641 
Q 3803 3938 3442 4084 
Q 3081 4231 2675 4231 
Q 1875 4231 1450 3742 
Q 1025 3253 1025 2328 
Q 1025 1406 1450 917 
Q 1875 428 2675 428 
Q 3081 428 3442 575 
Q 3803 722 4122 1019 
L 4122 359 
Q 3791 134 3420 21 
Q 3050 -91 2638 -91 
Q 1578 -91 968 557 
Q 359 1206 359 2328 
Q 359 3453 968 4101 
Q 1578 4750 2638 4750 
Q 3056 4750 3426 4639 
Q 3797 4528 4122 4306 
z
" transform="scale(0.015625)"/>
      <path id="DejaVuSans-53" d="M 3425 4513 
L 3425 3897 
Q 3066 4069 2747 4153 
Q 2428 4238 2131 4238 
Q 1616 4238 1336 4038 
Q 1056 3838 1056 3469 
Q 1056 3159 1242 3001 
Q 1428 2844 1947 2747 
L 2328 2669 
Q 3034 2534 3370 2195 
Q 3706 1856 3706 1288 
Q 3706 609 3251 259 
Q 2797 -91 1919 -91 
Q 1588 -91 1214 -16 
Q 841 59 441 206 
L 441 856 
Q 825 641 1194 531 
Q 1563 422 1919 422 
Q 2459 422 2753 634 
Q 3047 847 3047 1241 
Q 3047 1584 2836 1778 
Q 2625 1972 2144 2069 
L 1759 2144 
Q 1053 2284 737 2584 
Q 422 2884 422 3419 
Q 422 4038 858 4394 
Q 1294 4750 2059 4750 
Q 2388 4750 2728 4690 
Q 3069 4631 3425 4513 
z
" transform="scale(0.015625)"/>
      <path id="DejaVuSans-2d" d="M 313 2009 
L 1997 2009 
L 1997 1497 
L 313 1497 
L 313 2009 
z
" transform="scale(0.015625)"/>
      <path id="DejaVuSans-54" d="M -19 4666 
L 3928 4666 
L 3928 4134 
L 2272 4134 
L 2272 0 
L 1638 0 
L 1638 4134 
L -19 4134 
L -19 4666 
z
" transform="scale(0.015625)"/>
      <path id="DejaVuSans-70" d="M 1159 525 
L 1159 -1331 
L 581 -1331 
L 581 3500 
L 1159 3500 
L 1159 2969 
Q 1341 3281 1617 3432 
Q 1894 3584 2278 3584 
Q 2916 3584 3314 3078 
Q 3713 2572 3713 1747 
Q 3713 922 3314 415 
Q 2916 -91 2278 -91 
Q 1894 -91 1617 61 
Q 1341 213 1159 525 
z
M 3116 1747 
Q 3116 2381 2855 2742 
Q 2594 3103 2138 3103 
Q 1681 3103 1420 2742 
Q 1159 2381 1159 1747 
Q 1159 1113 1420 752 
Q 1681 391 2138 391 
Q 2594 391 2855 752 
Q 3116 1113 3116 1747 
z
" transform="scale(0.015625)"/>
      <path id="DejaVuSans-35" d="M 691 4666 
L 3169 4666 
L 3169 4134 
L 1269 4134 
L 1269 2991 
Q 1406 3038 1543 3061 
Q 1681 3084 1819 3084 
Q 2600 3084 3056 2656 
Q 3513 2228 3513 1497 
Q 3513 744 3044 326 
Q 2575 -91 1722 -91 
Q 1428 -91 1123 -41 
Q 819 9 494 109 
L 494 744 
Q 775 591 1075 516 
Q 1375 441 1709 441 
Q 2250 441 2565 725 
Q 2881 1009 2881 1497 
Q 2881 1984 2565 2268 
Q 2250 2553 1709 2553 
Q 1456 2553 1204 2497 
Q 953 2441 691 2322 
L 691 4666 
z
" transform="scale(0.015625)"/>
      <path id="DejaVuSans-2b" d="M 2944 4013 
L 2944 2272 
L 4684 2272 
L 4684 1741 
L 2944 1741 
L 2944 0 
L 2419 0 
L 2419 1741 
L 678 1741 
L 678 2272 
L 2419 2272 
L 2419 4013 
L 2944 4013 
z
" transform="scale(0.015625)"/>
      <path id="DejaVuSans-4f" d="M 2522 4238 
Q 1834 4238 1429 3725 
Q 1025 3213 1025 2328 
Q 1025 1447 1429 934 
Q 1834 422 2522 422 
Q 3209 422 3611 934 
Q 4013 1447 4013 2328 
Q 4013 3213 3611 3725 
Q 3209 4238 2522 4238 
z
M 2522 4750 
Q 3503 4750 4090 4092 
Q 4678 3434 4678 2328 
Q 4678 1225 4090 567 
Q 3503 -91 2522 -91 
Q 1538 -91 948 565 
Q 359 1222 359 2328 
Q 359 3434 948 4092 
Q 1538 4750 2522 4750 
z
" transform="scale(0.015625)"/>
     </defs>
     <use xlink:href="#DejaVuSans-4d"/>
     <use xlink:href="#DejaVuSans-6f" transform="translate(86.279297 0)"/>
     <use xlink:href="#DejaVuSans-6e" transform="translate(147.460938 0)"/>
     <use xlink:href="#DejaVuSans-74" transform="translate(210.839844 0)"/>
     <use xlink:href="#DejaVuSans-68" transform="translate(250.048828 0)"/>
     <use xlink:href="#DejaVuSans-6c" transform="translate(313.427734 0)"/>
     <use xlink:href="#DejaVuSans-79" transform="translate(341.210938 0)"/>
     <use xlink:href="#DejaVuSans-20" transform="translate(400.390625 0)"/>
     <use xlink:href="#DejaVuSans-41" transform="translate(432.177734 0)"/>
     <use xlink:href="#DejaVuSans-72" transform="translate(500.585938 0)"/>
     <use xlink:href="#DejaVuSans-74" transform="translate(541.699219 0)"/>
     <use xlink:href="#DejaVuSans-69" transform="translate(580.908203 0)"/>
     <use xlink:href="#DejaVuSans-63" transform="translate(608.691406 0)"/>
     <use xlink:href="#DejaVuSans-6c" transform="translate(663.671875 0)"/>
     <use xlink:href="#DejaVuSans-65" transform="translate(691.455078 0)"/>
     <use xlink:href="#DejaVuSans-20" transform="translate(752.978516 0)"/>
     <use xlink:href="#DejaVuSans-43" transform="translate(784.765625 0)"/>
     <use xlink:href="#DejaVuSans-6f" transform="translate(854.589844 0)"/>
     <use xlink:href="#DejaVuSans-75" transform="translate(915.771484 0)"/>
     <use xlink:href="#DejaVuSans-6e" transform="translate(979.150391 0)"/>
     <use xlink:href="#DejaVuSans-74" transform="translate(1042.529297 0)"/>
     <use xlink:href="#DejaVuSans-20" transform="translate(1081.738281 0)"/>
     <use xlink:href="#DejaVuSans-28" transform="translate(1113.525391 0)"/>
     <use xlink:href="#DejaVuSans-4c" transform="translate(1152.539062 0)"/>
     <use xlink:href="#DejaVuSans-6f" transform="translate(1206.501953 0)"/>
     <use xlink:href="#DejaVuSans-67" transform="translate(1267.683594 0)"/>
     <use xlink:href="#DejaVuSans-20" transform="translate(1331.160156 0)"/>
     <use xlink:href="#DejaVuSans-53" transform="translate(1362.947266 0)"/>
     <use xlink:href="#DejaVuSans-63" transform="translate(1426.423828 0)"/>
     <use xlink:href="#DejaVuSans-61" transform="translate(1481.404297 0)"/>
     <use xlink:href="#DejaVuSans-6c" transform="translate(1542.683594 0)"/>
     <use xlink:href="#DejaVuSans-65" transform="translate(1570.466797 0)"/>
     <use xlink:href="#DejaVuSans-29" transform="translate(1631.990234 0)"/>
     <use xlink:href="#DejaVuSans-20" transform="translate(1671.003906 0)"/>
     <use xlink:href="#DejaVuSans-2d" transform="translate(1702.791016 0)"/>
     <use xlink:href="#DejaVuSans-20" transform="translate(1738.875 0)"/>
     <use xlink:href="#DejaVuSans-54" transform="translate(1770.662109 0)"/>
     <use xlink:href="#DejaVuSans-6f" transform="translate(1814.746094 0)"/>
     <use xlink:href="#DejaVuSans-70" transform="translate(1875.927734 0)"/>
     <use xlink:href="#DejaVuSans-20" transform="translate(1939.404297 0)"/>
     <use xlink:href="#DejaVuSans-35" transform="translate(1971.191406 0)"/>
     <use xlink:href="#DejaVuSans-20" transform="translate(2034.814453 0)"/>
     <use xlink:href="#DejaVuSans-43" transform="translate(2066.601562 0)"/>
     <use xlink:href="#DejaVuSans-61" transform="translate(2136.425781 0)"/>
     <use xlink:href="#DejaVuSans-74" transform="translate(2197.705078 0)"/>
     <use xlink:href="#DejaVuSans-65" transform="translate(2236.914062 0)"/>
     <use xlink:href="#DejaVuSans-67" transform="translate(2298.4375 0)"/>
     <use xlink:href="#DejaVuSans-6f" transform="translate(2361.914062 0)"/>
     <use xlink:href="#DejaVuSans-72" transform="translate(2423.095703 0)"/>
     <use xlink:href="#DejaVuSans-69" transform="translate(2464.208984 0)"/>
     <use xlink:href="#DejaVuSans-65" transform="translate(2491.992188 0)"/>
     <use xlink:href="#DejaVuSans-73" transform="translate(2553.515625 0)"/>
     <use xlink:href="#DejaVuSans-20" transform="translate(2605.615234 0)"/>
     <use xlink:href="#DejaVuSans-2b" transform="translate(2637.402344 0)"/>
     <use xlink:href="#DejaVuSans-20" transform="translate(2721.191406 0)"/>
     <use xlink:href="#DejaVuSans-4f" transform="translate(2752.978516 0)"/>
     <use xlink:href="#DejaVuSans-74" transform="translate(2831.689453 0)"/>
     <use xlink:href="#DejaVuSans-68" transform="translate(2870.898438 0)"/>
     <use xlink:href="#DejaVuSans-65" transform="translate(2934.277344 0)"/>
     <use xlink:href="#DejaVuSans-72" transform="translate(2995.800781 0)"/>
    </g>
   </g>
   <g id="legend_1">
    <g id="patch_7">
     <path d="M 67.055021 152.163125 
L 182.001584 152.163125 
Q 184.201584 152.163125 184.201584 149.963125 
L 184.201584 36.74 
Q 184.201584 34.54 182.001584 34.54 
L 67.055021 34.54 
Q 64.855021 34.54 64.855021 36.74 
L 64.855021 149.963125 
Q 64.855021 152.163125 67.055021 152.163125 
z
" style="fill: #eaeaf2; opacity: 0.8; stroke: #cccccc; stroke-linejoin: miter"/>
    </g>
    <g id="text_16">
     <!-- category_grouped -->
     <g style="fill: #262626" transform="translate(70.085802 48.058125) scale(0.12 -0.12)">
      <defs>
       <path id="DejaVuSans-5f" d="M 3263 -1063 
L 3263 -1509 
L -63 -1509 
L -63 -1063 
L 3263 -1063 
z
" transform="scale(0.015625)"/>
       <path id="DejaVuSans-64" d="M 2906 2969 
L 2906 4863 
L 3481 4863 
L 3481 0 
L 2906 0 
L 2906 525 
Q 2725 213 2448 61 
Q 2172 -91 1784 -91 
Q 1150 -91 751 415 
Q 353 922 353 1747 
Q 353 2572 751 3078 
Q 1150 3584 1784 3584 
Q 2172 3584 2448 3432 
Q 2725 3281 2906 2969 
z
M 947 1747 
Q 947 1113 1208 752 
Q 1469 391 1925 391 
Q 2381 391 2643 752 
Q 2906 1113 2906 1747 
Q 2906 2381 2643 2742 
Q 2381 3103 1925 3103 
Q 1469 3103 1208 2742 
Q 947 2381 947 1747 
z
" transform="scale(0.015625)"/>
      </defs>
      <use xlink:href="#DejaVuSans-63"/>
      <use xlink:href="#DejaVuSans-61" transform="translate(54.980469 0)"/>
      <use xlink:href="#DejaVuSans-74" transform="translate(116.259766 0)"/>
      <use xlink:href="#DejaVuSans-65" transform="translate(155.46875 0)"/>
      <use xlink:href="#DejaVuSans-67" transform="translate(216.992188 0)"/>
      <use xlink:href="#DejaVuSans-6f" transform="translate(280.46875 0)"/>
      <use xlink:href="#DejaVuSans-72" transform="translate(341.650391 0)"/>
      <use xlink:href="#DejaVuSans-79" transform="translate(382.763672 0)"/>
      <use xlink:href="#DejaVuSans-5f" transform="translate(441.943359 0)"/>
      <use xlink:href="#DejaVuSans-67" transform="translate(491.943359 0)"/>
      <use xlink:href="#DejaVuSans-72" transform="translate(555.419922 0)"/>
      <use xlink:href="#DejaVuSans-6f" transform="translate(594.283203 0)"/>
      <use xlink:href="#DejaVuSans-75" transform="translate(655.464844 0)"/>
      <use xlink:href="#DejaVuSans-70" transform="translate(718.84375 0)"/>
      <use xlink:href="#DejaVuSans-65" transform="translate(782.320312 0)"/>
      <use xlink:href="#DejaVuSans-64" transform="translate(843.84375 0)"/>
     </g>
    </g>
    <g id="line2d_25">
     <path d="M 69.255021 60.895781 
L 80.255021 60.895781 
L 91.255021 60.895781 
" style="fill: none; stroke: #4c72b0; stroke-width: 1.5; stroke-linecap: round"/>
    </g>
    <g id="text_17">
     <!-- forbrug -->
     <g style="fill: #262626" transform="translate(100.055021 64.745781) scale(0.11 -0.11)">
      <use xlink:href="#DejaVuSans-66"/>
      <use xlink:href="#DejaVuSans-6f" transform="translate(35.205078 0)"/>
      <use xlink:href="#DejaVuSans-72" transform="translate(96.386719 0)"/>
      <use xlink:href="#DejaVuSans-62" transform="translate(137.5 0)"/>
      <use xlink:href="#DejaVuSans-72" transform="translate(200.976562 0)"/>
      <use xlink:href="#DejaVuSans-75" transform="translate(242.089844 0)"/>
      <use xlink:href="#DejaVuSans-67" transform="translate(305.46875 0)"/>
     </g>
    </g>
    <g id="line2d_26">
     <path d="M 69.255021 77.041719 
L 80.255021 77.041719 
L 91.255021 77.041719 
" style="fill: none; stroke: #dd8452; stroke-width: 1.5; stroke-linecap: round"/>
    </g>
    <g id="text_18">
     <!-- sport -->
     <g style="fill: #262626" transform="translate(100.055021 80.891719) scale(0.11 -0.11)">
      <use xlink:href="#DejaVuSans-73"/>
      <use xlink:href="#DejaVuSans-70" transform="translate(52.099609 0)"/>
      <use xlink:href="#DejaVuSans-6f" transform="translate(115.576172 0)"/>
      <use xlink:href="#DejaVuSans-72" transform="translate(176.757812 0)"/>
      <use xlink:href="#DejaVuSans-74" transform="translate(217.871094 0)"/>
     </g>
    </g>
    <g id="line2d_27">
     <path d="M 69.255021 93.187656 
L 80.255021 93.187656 
L 91.255021 93.187656 
" style="fill: none; stroke: #55a868; stroke-width: 1.5; stroke-linecap: round"/>
    </g>
    <g id="text_19">
     <!-- nyheder -->
     <g style="fill: #262626" transform="translate(100.055021 97.037656) scale(0.11 -0.11)">
      <use xlink:href="#DejaVuSans-6e"/>
      <use xlink:href="#DejaVuSans-79" transform="translate(63.378906 0)"/>
      <use xlink:href="#DejaVuSans-68" transform="translate(122.558594 0)"/>
      <use xlink:href="#DejaVuSans-65" transform="translate(185.9375 0)"/>
      <use xlink:href="#DejaVuSans-64" transform="translate(247.460938 0)"/>
      <use xlink:href="#DejaVuSans-65" transform="translate(310.9375 0)"/>
      <use xlink:href="#DejaVuSans-72" transform="translate(372.460938 0)"/>
     </g>
    </g>
    <g id="line2d_28">
     <path d="M 69.255021 109.333594 
L 80.255021 109.333594 
L 91.255021 109.333594 
" style="fill: none; stroke: #c44e52; stroke-width: 1.5; stroke-linecap: round"/>
    </g>
    <g id="text_20">
     <!-- Other -->
     <g style="fill: #262626" transform="translate(100.055021 113.183594) scale(0.11 -0.11)">
      <use xlink:href="#DejaVuSans-4f"/>
      <use xlink:href="#DejaVuSans-74" transform="translate(78.710938 0)"/>
      <use xlink:href="#DejaVuSans-68" transform="translate(117.919922 0)"/>
      <use xlink:href="#DejaVuSans-65" transform="translate(181.298828 0)"/>
      <use xlink:href="#DejaVuSans-72" transform="translate(242.822266 0)"/>
     </g>
    </g>
    <g id="line2d_29">
     <path d="M 69.255021 125.479531 
L 80.255021 125.479531 
L 91.255021 125.479531 
" style="fill: none; stroke: #8172b3; stroke-width: 1.5; stroke-linecap: round"/>
    </g>
    <g id="text_21">
     <!-- krimi -->
     <g style="fill: #262626" transform="translate(100.055021 129.329531) scale(0.11 -0.11)">
      <defs>
       <path id="DejaVuSans-6b" d="M 581 4863 
L 1159 4863 
L 1159 1991 
L 2875 3500 
L 3609 3500 
L 1753 1863 
L 3688 0 
L 2938 0 
L 1159 1709 
L 1159 0 
L 581 0 
L 581 4863 
z
" transform="scale(0.015625)"/>
      </defs>
      <use xlink:href="#DejaVuSans-6b"/>
      <use xlink:href="#DejaVuSans-72" transform="translate(57.910156 0)"/>
      <use xlink:href="#DejaVuSans-69" transform="translate(99.023438 0)"/>
      <use xlink:href="#DejaVuSans-6d" transform="translate(126.806641 0)"/>
      <use xlink:href="#DejaVuSans-69" transform="translate(224.21875 0)"/>
     </g>
    </g>
    <g id="line2d_30">
     <path d="M 69.255021 141.625469 
L 80.255021 141.625469 
L 91.255021 141.625469 
" style="fill: none; stroke: #937860; stroke-width: 1.5; stroke-linecap: round"/>
    </g>
    <g id="text_22">
     <!-- underholdning -->
     <g style="fill: #262626" transform="translate(100.055021 145.475469) scale(0.11 -0.11)">
      <use xlink:href="#DejaVuSans-75"/>
      <use xlink:href="#DejaVuSans-6e" transform="translate(63.378906 0)"/>
      <use xlink:href="#DejaVuSans-64" transform="translate(126.757812 0)"/>
      <use xlink:href="#DejaVuSans-65" transform="translate(190.234375 0)"/>
      <use xlink:href="#DejaVuSans-72" transform="translate(251.757812 0)"/>
      <use xlink:href="#DejaVuSans-68" transform="translate(291.121094 0)"/>
      <use xlink:href="#DejaVuSans-6f" transform="translate(354.5 0)"/>
      <use xlink:href="#DejaVuSans-6c" transform="translate(415.681641 0)"/>
      <use xlink:href="#DejaVuSans-64" transform="translate(443.464844 0)"/>
      <use xlink:href="#DejaVuSans-6e" transform="translate(506.941406 0)"/>
      <use xlink:href="#DejaVuSans-69" transform="translate(570.320312 0)"/>
      <use xlink:href="#DejaVuSans-6e" transform="translate(598.103516 0)"/>
      <use xlink:href="#DejaVuSans-67" transform="translate(661.482422 0)"/>
     </g>
    </g>
   </g>
  </g>
 </g>
 <defs>
  <clipPath id="p0907b32a5b">
   <rect x="59.355021" y="29.04" width="719.684979" height="264.111328"/>
  </clipPath>
 </defs>
</svg>
